<?xml version="1.0" encoding="utf-8"?>
<!-- Generator: Adobe Illustrator 26.3.1, SVG Export Plug-In . SVG Version: 6.00 Build 0)  -->
<svg version="1.1" id="图层_1" xmlns="http://www.w3.org/2000/svg" xmlns:xlink="http://www.w3.org/1999/xlink" x="0px" y="0px"
	 viewBox="0 0 22 22" style="enable-background:new 0 0 22 22;" xml:space="preserve">
<style type="text/css">
	.st0{filter:url(#Adobe_OpacityMaskFilter);}
	.st1{fill-rule:evenodd;clip-rule:evenodd;fill:#FFFFFF;}
	.st2{mask:url(#mask-2_00000067953126626241888800000010146187351399952798_);}
	.st3{fill-rule:evenodd;clip-rule:evenodd;fill:#8D98AA;}
</style>
<g id="控件">
	<g id="topbar_x2F_login" transform="translate(-141.000000, -1.000000)">
		<g id="_x31_-icon_x2F_01公共_x2F_03箭头_x2F_caret-down" transform="translate(141.500000, 1.500000)">
			<g id="形状结合">
				<path id="path-1_00000143606280883974953910000006347932494071402114_" d="M10.5,0C16.3,0,21,4.7,21,10.5S16.3,21,10.5,21
					S0,16.3,0,10.5S4.7,0,10.5,0z M10.5,1.5c-5,0-9,4-9,9s4,9,9,9s9-4,9-9S15.5,1.5,10.5,1.5z M10.9,14.2c0.4,0,0.8,0.3,0.8,0.8v0.8
					c0,0.4-0.3,0.7-0.8,0.7h-0.8c-0.4,0-0.8-0.3-0.8-0.7V15c0-0.4,0.3-0.8,0.8-0.8H10.9z M10.7,4.5c0.5,0,1,0.1,1.4,0.3
					c0.4,0.2,0.8,0.5,1,0.9c0.2,0.4,0.4,0.8,0.4,1.3c0,0.3-0.1,0.6-0.2,0.9c-0.1,0.3-0.3,0.5-0.4,0.7s-0.4,0.4-0.7,0.7
					s-0.5,0.5-0.7,0.7c-0.2,0.2-0.3,0.4-0.4,0.7c-0.1,0.3-0.2,0.6-0.2,0.9c0,0.2,0,0.4,0.1,0.6c0,0.3-0.2,0.4-0.5,0.4
					c-0.3,0-0.5-0.1-0.6-0.4c-0.1-0.4-0.2-0.7-0.2-1.1c0-0.4,0.1-0.7,0.2-1c0.1-0.3,0.3-0.5,0.4-0.7s0.4-0.4,0.7-0.7
					c0.3-0.3,0.6-0.6,0.8-0.8C11.9,7.7,12,7.5,12,7.2c0-0.4-0.1-0.7-0.4-0.9s-0.6-0.3-1-0.3c-0.4,0-0.8,0.1-1.1,0.4
					C9.1,6.5,8.8,6.9,8.6,7.5C8.4,7.7,8.2,7.8,7.9,7.7C7.6,7.6,7.5,7.3,7.5,6.8c0.2-0.7,0.6-1.3,1.2-1.7S10,4.5,10.7,4.5z"/>
			</g>
			<defs>
				<filter id="Adobe_OpacityMaskFilter" filterUnits="userSpaceOnUse" x="-1.5" y="-1.5" width="24" height="24">
					<feColorMatrix  type="matrix" values="1 0 0 0 0  0 1 0 0 0  0 0 1 0 0  0 0 0 1 0"/>
				</filter>
			</defs>
			
				<mask maskUnits="userSpaceOnUse" x="-1.5" y="-1.5" width="24" height="24" id="mask-2_00000067953126626241888800000010146187351399952798_">
				<g class="st0">
					<path id="path-1_00000027578110274253202520000011930268119177904805_" class="st1" d="M10.5,0C16.3,0,21,4.7,21,10.5
						S16.3,21,10.5,21S0,16.3,0,10.5S4.7,0,10.5,0z M10.5,1.5c-5,0-9,4-9,9s4,9,9,9s9-4,9-9S15.5,1.5,10.5,1.5z M10.9,14.2
						c0.4,0,0.8,0.3,0.8,0.8v0.8c0,0.4-0.3,0.7-0.8,0.7h-0.8c-0.4,0-0.8-0.3-0.8-0.7V15c0-0.4,0.3-0.8,0.8-0.8H10.9z M10.7,4.5
						c0.5,0,1,0.1,1.4,0.3c0.4,0.2,0.8,0.5,1,0.9c0.2,0.4,0.4,0.8,0.4,1.3c0,0.3-0.1,0.6-0.2,0.9c-0.1,0.3-0.3,0.5-0.4,0.7
						s-0.4,0.4-0.7,0.7s-0.5,0.5-0.7,0.7c-0.2,0.2-0.3,0.4-0.4,0.7c-0.1,0.3-0.2,0.6-0.2,0.9c0,0.2,0,0.4,0.1,0.6
						c0,0.3-0.2,0.4-0.5,0.4c-0.3,0-0.5-0.1-0.6-0.4c-0.1-0.4-0.2-0.7-0.2-1.1c0-0.4,0.1-0.7,0.2-1c0.1-0.3,0.3-0.5,0.4-0.7
						s0.4-0.4,0.7-0.7c0.3-0.3,0.6-0.6,0.8-0.8C11.9,7.7,12,7.5,12,7.2c0-0.4-0.1-0.7-0.4-0.9s-0.6-0.3-1-0.3
						c-0.4,0-0.8,0.1-1.1,0.4C9.1,6.5,8.8,6.9,8.6,7.5C8.4,7.7,8.2,7.8,7.9,7.7C7.6,7.6,7.5,7.3,7.5,6.8c0.2-0.7,0.6-1.3,1.2-1.7
						S10,4.5,10.7,4.5z"/>
				</g>
			</mask>
			<g id="_x30_-color_x2F_Dark_x2F_3Secondary" class="st2">
				<g id="矩形" transform="translate(-1.500000, -1.500000)">
					<rect y="0" class="st3" width="24" height="24"/>
				</g>
			</g>
		</g>
	</g>
</g>
</svg>
