<?xml version="1.0" encoding="utf-8"?>
<!-- Generator: Adobe Illustrator 24.0.1, SVG Export Plug-In . SVG Version: 6.00 Build 0)  -->
<svg version="1.1" id="图层_1" xmlns="http://www.w3.org/2000/svg" xmlns:xlink="http://www.w3.org/1999/xlink" x="0px" y="0px"
	 viewBox="0 0 16 16" style="enable-background:new 0 0 16 16;" xml:space="preserve">
<style type="text/css">
	.st0{fill-rule:evenodd;clip-rule:evenodd;fill:#0077FF;}
	.st1{fill-rule:evenodd;clip-rule:evenodd;fill:#FFFFFF;}
</style>
<title>1-icon/01公共/02告警/remind</title>
<g id="_x31_-icon_x2F_01公共_x2F_02告警_x2F_remind">
	<path id="路径" class="st0" d="M8,1C4.1,1,1,4.1,1,8s3.1,7,7,7s7-3.1,7-7S11.9,1,8,1z"/>
	<path id="形状" class="st1" d="M8,6C7.6,6,7.2,5.7,7.2,5.2S7.6,4.5,8,4.5s0.8,0.3,0.8,0.8S8.4,6,8,6z M8,7c0.3,0,0.5,0.2,0.5,0.5
		v4C8.5,11.8,8.3,12,8,12c-0.3,0-0.5-0.2-0.5-0.5v-4C7.5,7.2,7.7,7,8,7z"/>
</g>
</svg>
