<?xml version="1.0" encoding="utf-8"?>
<!-- Generator: Adobe Illustrator 26.3.1, SVG Export Plug-In . SVG Version: 6.00 Build 0)  -->
<svg version="1.1" id="图层_1" xmlns="http://www.w3.org/2000/svg" xmlns:xlink="http://www.w3.org/1999/xlink" x="0px" y="0px"
	 viewBox="0 0 22 22" style="enable-background:new 0 0 22 22;" xml:space="preserve">
<style type="text/css">
	.st0{fill:none;}
	.st1{fill-rule:evenodd;clip-rule:evenodd;}
	.st2{filter:url(#Adobe_OpacityMaskFilter);}
	.st3{fill-rule:evenodd;clip-rule:evenodd;fill:#FFFFFF;}
	.st4{mask:url(#mask-2_00000049196957166638055970000006086758533331352250_);}
	.st5{fill-rule:evenodd;clip-rule:evenodd;fill:#8D98AA;}
</style>
<g id="控件">
	<g id="_x31_-icon_x2F_01公共_x2F_help备份" transform="translate(-1.000000, -1.000000)">
		<rect id="矩形备份-28" y="0" class="st0" width="24" height="24"/>
		<g id="_x30_-color_x2F_Dark_x2F_3-Text-3Secondary" transform="translate(1.000000, 1.000000)">
			<g id="蒙版">
				<path id="path-1_00000016065647498284187950000011903836686230053272_" class="st1" d="M11,0c6.1,0,11,4.9,11,11s-4.9,11-11,11
					S0,17.1,0,11S4.9,0,11,0z M11,1.5c-4.5,0-8.3,3.1-9.2,7.3C2.3,9,4.2,9.4,4.4,9.4c0.7,0.1,1.5-0.1,2.1-0.6
					c0.5-0.4,1.2-0.6,1.8-0.5c0.1,0,0.1,0,0.2,0c0.7,0.3,1.2,0.7,1.7,1.2c0.1,0.1,0.2,0.2,0.4,0.3c0.6,0.2,1.3,0.3,1.9,0.3
					c0.6,0,1.2,0.1,1.8,0.3c0.1,0,0.1,0,0.2,0.1c1,0.6,1.8,1.6,2.1,2.8c0.1,0.6,0,1.3-0.5,1.7c0,0-0.1,0.1-0.1,0.1
					c-0.6,0.4-1.4,0.7-2.1,0.7c-0.3,0-0.6,0.1-0.8,0.2c-0.7,0.8-1.2,1.7-1.5,2.6c0,0.4-0.1,0.8,0,1.2c0,0.2,0.1,0.4,0.2,0.6
					c4.9-0.4,8.7-4.5,8.7-9.5c0-1.2-0.2-2.3-0.6-3.4l0,0c0,0.1,0,0.2-0.1,0.2c-0.1,0.2-0.2,0.4-0.3,0.6c0,0.1-0.1,0.1-0.2,0.1
					C19,8.8,18.6,9,18.2,9c-0.1,0.3-0.3,0.5-0.4,0.8c0,0-0.1,0.1-0.1,0.1c-0.3,0.3-0.6,0.4-1,0.4c0,0,0,0-0.1,0l-0.2,0
					c-0.1,0-0.1,0-0.2,0c-1.2-0.3-2.2-0.9-3.1-1.7C13,8.4,13,8.3,12.9,8.2c-0.2-0.5-0.2-1,0-1.4c0-0.2,0.1-0.4,0-0.6
					c-0.7-0.2-1.3-0.7-1.6-1.3c0-0.1-0.1-0.1-0.1-0.2C11,3.8,11,2.9,11.1,2.1l0-0.3c0-0.1,0-0.2,0-0.3L11,1.5z M7.4,10
					c-1,0.6-2.1,0.9-3.1,0.8c0,0-1.7-0.2-2.8-0.6c0,0.2,0,0.5,0,0.7c0,5,3.8,9,8.7,9.5c0-0.1-0.1-0.3-0.1-0.4c-0.1-0.5,0-1,0-1.5
					c0,0,0-0.1,0-0.1c0.4-1.3,1-2.5,2-3.5c0.1-0.1,0.1-0.1,0.2-0.2c0.5-0.2,1-0.3,1.5-0.3c0.5,0,0.9-0.1,1.2-0.4
					c0.1-0.1,0.1-0.2,0.1-0.2c-0.2-0.7-0.7-1.4-1.3-1.8c-0.4-0.1-0.8-0.2-1.3-0.2c-0.9,0-1.7-0.2-2.5-0.5c-0.1,0-0.1-0.1-0.2-0.1
					c-0.3-0.2-0.5-0.4-0.7-0.7c-0.3-0.3-0.6-0.6-1-0.8C7.9,9.8,7.6,9.9,7.4,10z M12.6,1.6L12.6,1.6c0,0.2,0,0.2,0,0.3
					c0,0.1,0,0.2,0,0.3c-0.1,0.6,0,1.3,0.1,2c0.2,0.3,0.5,0.5,0.8,0.6c0,0,0.1,0,0.1,0L14,5c0.2,0.1,0.4,0.3,0.4,0.5
					c0.2,0.6,0.2,1.2,0,1.8c0,0.1-0.1,0.2,0,0.3c0.6,0.5,1.3,0.9,2.1,1.1l0.2,0c0.1-0.2,0.2-0.4,0.3-0.7c0-0.2,0.2-0.4,0.3-0.5
					c0.2-0.1,0.4-0.1,0.6-0.1c0.2,0.1,0.4,0,0.5,0c0,0,0,0,0-0.1c0,0,0-0.1,0-0.1c0-0.3,0.2-0.5,0.4-0.7c0.1-0.1,0.3-0.2,0.3-0.3
					l0.1-0.1C17.8,3.8,15.4,2.1,12.6,1.6z"/>
			</g>
			<defs>
				<filter id="Adobe_OpacityMaskFilter" filterUnits="userSpaceOnUse" x="-1" y="-1" width="24" height="24">
					<feColorMatrix  type="matrix" values="1 0 0 0 0  0 1 0 0 0  0 0 1 0 0  0 0 0 1 0"/>
				</filter>
			</defs>
			
				<mask maskUnits="userSpaceOnUse" x="-1" y="-1" width="24" height="24" id="mask-2_00000049196957166638055970000006086758533331352250_">
				<g class="st2">
					<path id="path-1_00000113311551792257127100000007797436465794858636_" class="st3" d="M11,0c6.1,0,11,4.9,11,11s-4.9,11-11,11
						S0,17.1,0,11S4.9,0,11,0z M11,1.5c-4.5,0-8.3,3.1-9.2,7.3C2.3,9,4.2,9.4,4.4,9.4c0.7,0.1,1.5-0.1,2.1-0.6
						c0.5-0.4,1.2-0.6,1.8-0.5c0.1,0,0.1,0,0.2,0c0.7,0.3,1.2,0.7,1.7,1.2c0.1,0.1,0.2,0.2,0.4,0.3c0.6,0.2,1.3,0.3,1.9,0.3
						c0.6,0,1.2,0.1,1.8,0.3c0.1,0,0.1,0,0.2,0.1c1,0.6,1.8,1.6,2.1,2.8c0.1,0.6,0,1.3-0.5,1.7c0,0-0.1,0.1-0.1,0.1
						c-0.6,0.4-1.4,0.7-2.1,0.7c-0.3,0-0.6,0.1-0.8,0.2c-0.7,0.8-1.2,1.7-1.5,2.6c0,0.4-0.1,0.8,0,1.2c0,0.2,0.1,0.4,0.2,0.6
						c4.9-0.4,8.7-4.5,8.7-9.5c0-1.2-0.2-2.3-0.6-3.4l0,0c0,0.1,0,0.2-0.1,0.2c-0.1,0.2-0.2,0.4-0.3,0.6c0,0.1-0.1,0.1-0.2,0.1
						C19,8.8,18.6,9,18.2,9c-0.1,0.3-0.3,0.5-0.4,0.8c0,0-0.1,0.1-0.1,0.1c-0.3,0.3-0.6,0.4-1,0.4c0,0,0,0-0.1,0l-0.2,0
						c-0.1,0-0.1,0-0.2,0c-1.2-0.3-2.2-0.9-3.1-1.7C13,8.4,13,8.3,12.9,8.2c-0.2-0.5-0.2-1,0-1.4c0-0.2,0.1-0.4,0-0.6
						c-0.7-0.2-1.3-0.7-1.6-1.3c0-0.1-0.1-0.1-0.1-0.2C11,3.8,11,2.9,11.1,2.1l0-0.3c0-0.1,0-0.2,0-0.3L11,1.5z M7.4,10
						c-1,0.6-2.1,0.9-3.1,0.8c0,0-1.7-0.2-2.8-0.6c0,0.2,0,0.5,0,0.7c0,5,3.8,9,8.7,9.5c0-0.1-0.1-0.3-0.1-0.4c-0.1-0.5,0-1,0-1.5
						c0,0,0-0.1,0-0.1c0.4-1.3,1-2.5,2-3.5c0.1-0.1,0.1-0.1,0.2-0.2c0.5-0.2,1-0.3,1.5-0.3c0.5,0,0.9-0.1,1.2-0.4
						c0.1-0.1,0.1-0.2,0.1-0.2c-0.2-0.7-0.7-1.4-1.3-1.8c-0.4-0.1-0.8-0.2-1.3-0.2c-0.9,0-1.7-0.2-2.5-0.5c-0.1,0-0.1-0.1-0.2-0.1
						c-0.3-0.2-0.5-0.4-0.7-0.7c-0.3-0.3-0.6-0.6-1-0.8C7.9,9.8,7.6,9.9,7.4,10z M12.6,1.6L12.6,1.6c0,0.2,0,0.2,0,0.3
						c0,0.1,0,0.2,0,0.3c-0.1,0.6,0,1.3,0.1,2c0.2,0.3,0.5,0.5,0.8,0.6c0,0,0.1,0,0.1,0L14,5c0.2,0.1,0.4,0.3,0.4,0.5
						c0.2,0.6,0.2,1.2,0,1.8c0,0.1-0.1,0.2,0,0.3c0.6,0.5,1.3,0.9,2.1,1.1l0.2,0c0.1-0.2,0.2-0.4,0.3-0.7c0-0.2,0.2-0.4,0.3-0.5
						c0.2-0.1,0.4-0.1,0.6-0.1c0.2,0.1,0.4,0,0.5,0c0,0,0,0,0-0.1c0,0,0-0.1,0-0.1c0-0.3,0.2-0.5,0.4-0.7c0.1-0.1,0.3-0.2,0.3-0.3
						l0.1-0.1C17.8,3.8,15.4,2.1,12.6,1.6z"/>
				</g>
			</mask>
			<g id="矩形" class="st4">
				<g transform="translate(-1.000000, -1.000000)">
					<rect y="0" class="st5" width="24" height="24"/>
				</g>
			</g>
		</g>
	</g>
</g>
</svg>
