<?xml version="1.0" encoding="utf-8"?>
<!-- Generator: Adobe Illustrator 26.3.1, SVG Export Plug-In . SVG Version: 6.00 Build 0)  -->
<svg version="1.1" id="图层_1" xmlns="http://www.w3.org/2000/svg" xmlns:xlink="http://www.w3.org/1999/xlink" x="0px" y="0px"
	 viewBox="0 0 16 16" style="enable-background:new 0 0 16 16;" xml:space="preserve">
<style type="text/css">
	.st0{filter:url(#Adobe_OpacityMaskFilter);}
	.st1{fill-rule:evenodd;clip-rule:evenodd;fill:#FFFFFF;}
	.st2{mask:url(#mask-2_00000100380521489957632130000000401349409211732368_);}
	.st3{fill-rule:evenodd;clip-rule:evenodd;fill:#8D98AA;}
</style>
<g id="控件">
	<g id="新建界面_x2F_设置系统时间_x2F_2" transform="translate(-185.000000, -385.000000)">
		<g id="编组-6备份-5" transform="translate(48.000000, 384.000000)">
			<g id="_x31_-icon_x2F_01公共_x2F_help备份-3" transform="translate(137.000000, 1.000000)">
				<g id="形状结合">
					<path id="path-1_00000027587044351329991860000004735408251736624801_" d="M8,1c3.9,0,7,3.1,7,7s-3.1,7-7,7s-7-3.1-7-7
						S4.1,1,8,1z M8,2C4.7,2,2,4.7,2,8s2.7,6,6,6s6-2.7,6-6S11.3,2,8,2z M8,10.5c0.4,0,0.8,0.3,0.8,0.8S8.4,12,8,12
						c-0.4,0-0.8-0.3-0.8-0.8S7.6,10.5,8,10.5z M8.1,4c0.4,0,0.7,0.1,1,0.2c0.3,0.1,0.5,0.3,0.7,0.6C9.9,5.1,10,5.3,10,5.7
						c0,0.2,0,0.4-0.1,0.6C9.8,6.5,9.7,6.6,9.6,6.7C9.5,6.9,9.3,7,9.1,7.2C8.9,7.4,8.8,7.6,8.7,7.7C8.5,7.8,8.4,8,8.4,8.2
						C8.3,8.3,8.2,8.6,8.2,8.8c0,0.1,0,0.3,0,0.4c0,0.2-0.1,0.3-0.3,0.3c-0.2,0-0.4-0.1-0.4-0.3C7.5,9,7.4,8.7,7.4,8.5
						c0-0.3,0-0.5,0.1-0.7c0.1-0.2,0.2-0.4,0.3-0.5C8,7.2,8.1,7,8.3,6.9c0.2-0.2,0.4-0.4,0.5-0.6S9,6,9,5.8c0-0.3-0.1-0.5-0.3-0.6
						C8.5,5,8.3,4.9,8,4.9C7.8,4.9,7.5,5,7.3,5.2C7.1,5.4,6.9,5.6,6.8,6C6.6,6.1,6.4,6.2,6.3,6.1S6,5.8,6,5.5C6.2,5,6.4,4.7,6.8,4.4
						S7.6,4,8.1,4z"/>
				</g>
				<defs>
					<filter id="Adobe_OpacityMaskFilter" filterUnits="userSpaceOnUse" x="0" y="0" width="16" height="16">
						<feColorMatrix  type="matrix" values="1 0 0 0 0  0 1 0 0 0  0 0 1 0 0  0 0 0 1 0"/>
					</filter>
				</defs>
				
					<mask maskUnits="userSpaceOnUse" x="0" y="0" width="16" height="16" id="mask-2_00000100380521489957632130000000401349409211732368_">
					<g class="st0">
						<path id="path-1_00000173868913701191549810000004902914369493359775_" class="st1" d="M8,1c3.9,0,7,3.1,7,7s-3.1,7-7,7
							s-7-3.1-7-7S4.1,1,8,1z M8,2C4.7,2,2,4.7,2,8s2.7,6,6,6s6-2.7,6-6S11.3,2,8,2z M8,10.5c0.4,0,0.8,0.3,0.8,0.8S8.4,12,8,12
							c-0.4,0-0.8-0.3-0.8-0.8S7.6,10.5,8,10.5z M8.1,4c0.4,0,0.7,0.1,1,0.2c0.3,0.1,0.5,0.3,0.7,0.6C9.9,5.1,10,5.3,10,5.7
							c0,0.2,0,0.4-0.1,0.6C9.8,6.5,9.7,6.6,9.6,6.7C9.5,6.9,9.3,7,9.1,7.2C8.9,7.4,8.8,7.6,8.7,7.7C8.5,7.8,8.4,8,8.4,8.2
							C8.3,8.3,8.2,8.6,8.2,8.8c0,0.1,0,0.3,0,0.4c0,0.2-0.1,0.3-0.3,0.3c-0.2,0-0.4-0.1-0.4-0.3C7.5,9,7.4,8.7,7.4,8.5
							c0-0.3,0-0.5,0.1-0.7c0.1-0.2,0.2-0.4,0.3-0.5C8,7.2,8.1,7,8.3,6.9c0.2-0.2,0.4-0.4,0.5-0.6S9,6,9,5.8c0-0.3-0.1-0.5-0.3-0.6
							C8.5,5,8.3,4.9,8,4.9C7.8,4.9,7.5,5,7.3,5.2C7.1,5.4,6.9,5.6,6.8,6C6.6,6.1,6.4,6.2,6.3,6.1S6,5.8,6,5.5
							C6.2,5,6.4,4.7,6.8,4.4S7.6,4,8.1,4z"/>
					</g>
				</mask>
				<g id="_x30_-color_x2F_Dark_x2F_3Secondary" class="st2">
					<g id="矩形" transform="translate(-1.000000, -1.000000)">
						<rect x="1" y="1" class="st3" width="16" height="16"/>
					</g>
				</g>
			</g>
		</g>
	</g>
</g>
</svg>
