<?xml version="1.0" encoding="utf-8"?>
<!-- Generator: Adobe Illustrator 24.0.1, SVG Export Plug-In . SVG Version: 6.00 Build 0)  -->
<svg version="1.1" id="图层_1" xmlns="http://www.w3.org/2000/svg" xmlns:xlink="http://www.w3.org/1999/xlink" x="0px" y="0px"
	 viewBox="0 0 16 16" style="enable-background:new 0 0 16 16;" xml:space="preserve">
<style type="text/css">
	.st0{fill:#fff;}
</style>
<title>1-icon/01公共/refresh</title>
<g id="_x31_-icon_x2F_01公共_x2F_refresh">
	<g id="形状结合">
		<path id="path-1_1_" class="st0" d="M11.6,5.2c-0.3,0-0.5-0.2-0.5-0.5c0-0.2,0.2-0.4,0.4-0.5l0.1,0l1.1,0C10.9,2,7.6,1.3,5,2.8
			C2.1,4.5,1.1,8.1,2.8,11s5.3,3.9,8.2,2.2c0.2-0.1,0.5-0.1,0.7,0.2s0.1,0.5-0.2,0.7c-3.3,1.9-7.6,0.8-9.6-2.6S1.2,3.9,4.5,1.9
			c2.9-1.7,6.5-1,8.6,1.3l0-0.5c0-0.2,0.2-0.4,0.4-0.5l0.1,0c0.2,0,0.4,0.2,0.5,0.4l0,0.1v2c0,0.1-0.1,0.3-0.1,0.3
			c0,0-0.1,0.1-0.1,0.1c0,0-0.1,0-0.1,0.1c0,0,0,0,0,0c0,0,0,0-0.1,0l0,0H11.6z"/>
	</g>
</g>
</svg>
