<?xml version="1.0" encoding="UTF-8"?>
<svg width="16px" height="16px" viewBox="0 0 16 16" version="1.1" xmlns="http://www.w3.org/2000/svg" xmlns:xlink="http://www.w3.org/1999/xlink">
    <title>1-icon/01公共/02告警/success</title>
    <g id="1-icon/01公共/02告警/success" stroke="none" stroke-width="1" fill="none" fill-rule="evenodd">
        <path d="M8,1 C4.134375,1 1,4.134375 1,8 C1,11.865625 4.134375,15 8,15 C11.865625,15 15,11.865625 15,8 C15,4.134375 11.865625,1 8,1 Z" id="路径" fill="#24AB36"></path>
        <path d="M4.85575659,7.95067377 C5.03424698,7.7820837 5.30526536,7.76934748 5.49768421,7.90838016 L5.5658227,7.9676236 L7.16330581,9.63008642 L10.393927,5.30182721 C10.5405359,5.10534658 10.8053156,5.04664377 11.0189754,5.1508386 L11.0963754,5.1975901 C11.2946055,5.34290829 11.3538324,5.60534513 11.2487074,5.81711441 L11.201532,5.89382513 L7.61663033,10.6981955 C7.44803559,10.9241407 7.12959414,10.9634111 6.91143373,10.8005507 L6.84924417,10.7456133 L4.83865544,8.65445709 C4.66856034,8.47754601 4.65571042,8.20892565 4.79598427,8.01820935 L4.85575659,7.95067377 Z" id="路径" fill="#FFFFFF"></path>
    </g>
</svg>