<?xml version="1.0" encoding="utf-8"?>
<!-- Generator: Adobe Illustrator 26.3.1, SVG Export Plug-In . SVG Version: 6.00 Build 0)  -->
<svg version="1.1" id="图层_1" xmlns="http://www.w3.org/2000/svg" xmlns:xlink="http://www.w3.org/1999/xlink" x="0px" y="0px"
	 viewBox="0 0 24 24" style="enable-background:new 0 0 24 24;" xml:space="preserve">
<style type="text/css">
	.st0{fill:none;}
	.st1{fill:#8D98AA;}
	.st2{display:none;fill-rule:evenodd;clip-rule:evenodd;fill:#8D98AA;}
</style>
<g id="控件">
	<g id="topbar_x2F_login" transform="translate(-100.000000, 0.000000)">
		<g id="_x31_-icon_x2F_01公共_x2F_user" transform="translate(100.000000, 0.000000)">
			<rect id="矩形" y="0" class="st0" width="24" height="24"/>
			<g id="蒙版">
				<path id="path-1_00000039124077402401574790000010930247659422120583_" class="st1" d="M12,1c6.1,0,11,4.9,11,11s-4.9,11-11,11
					S1,18.1,1,12S5.9,1,12,1z M12,2.5c-5.2,0-9.5,4.3-9.5,9.5s4.3,9.5,9.5,9.5s9.5-4.3,9.5-9.5S17.2,2.5,12,2.5z M12,13.2
					c3.5,0,6.5,2.2,7.8,5.5c0.1,0.4,0,0.8-0.4,1c-0.4,0.1-0.8,0-1-0.4c-1-2.7-3.5-4.5-6.3-4.5c-2.7,0-5.2,1.7-6.3,4.3
					c-0.2,0.4-0.6,0.6-1,0.4s-0.6-0.6-0.4-1C5.6,15.3,8.6,13.2,12,13.2z M12,5c2.2,0,4,1.8,4,4s-1.8,4-4,4s-4-1.8-4-4S9.8,5,12,5z
					 M12,6.5c-1.4,0-2.5,1.1-2.5,2.5s1.1,2.5,2.5,2.5s2.5-1.1,2.5-2.5S13.4,6.5,12,6.5z"/>
			</g>
			<g id="icon_x2F_颜色_x2F__x23_1D2941">
				<rect id="矩形_00000112603571630441299220000018235043080057144707_" y="0" class="st2" width="24" height="24"/>
			</g>
		</g>
	</g>
</g>
</svg>
