<?xml version="1.0" encoding="UTF-8"?>
<svg width="28px" height="24px" viewBox="0 0 28 24" version="1.1" xmlns="http://www.w3.org/2000/svg" xmlns:xlink="http://www.w3.org/1999/xlink">
    <title>1-icon/01公共/02告警/alarm-orange 2</title>
    <g id="首页" stroke="none" stroke-width="1" fill="none" fill-rule="evenodd">
        <g transform="translate(-1663.000000, -529.000000)" id="1-icon/01公共/02告警/alarm-orange">
            <g transform="translate(1663.000000, 529.000000)">
                <path d="M27.762936,21.44907 L21.6393063,11.14969 L15.5156765,0.850310009 C15.1791232,0.284322409 14.5881026,0 13.9998182,0 C13.4087977,0 12.8205133,0.284322409 12.4839599,0.850310009 L6.3603302,11.14969 L0.236700467,21.44907 C-0.436406287,22.5837024 0.406345258,24 1.75255876,24 L26.2470777,24 C27.5960274,24 28.4360427,22.5837024 27.762936,21.44907 Z" id="路径" fill="#F97611" fill-rule="nonzero"></path>
                <path d="M14,20 C13.171875,20 12.5,19.328125 12.5,18.5 C12.5,17.671875 13.171875,17 14,17 C14.828125,17 15.5,17.671875 15.5,18.5 C15.5,19.328125 14.828125,20 14,20 Z M13.5,5 L14.5,5 C14.7761424,5 15,5.22385763 15,5.5 L15,14.5 C15,14.7761424 14.7761424,15 14.5,15 L13.5,15 C13.2238576,15 13,14.7761424 13,14.5 L13,5.5 C13,5.22385763 13.2238576,5 13.5,5 Z" id="形状" fill="#FFFFFF"></path>
            </g>
        </g>
    </g>
</svg>