<?xml version="1.0" encoding="UTF-8"?>
<svg width="92px" height="51px" viewBox="0 0 92 51" version="1.1" xmlns="http://www.w3.org/2000/svg" xmlns:xlink="http://www.w3.org/1999/xlink">
    <title>形状结合备份 17</title>
    <g id="首页" stroke="none" stroke-width="1" fill="none" fill-rule="evenodd" fill-opacity="0.119263549">
        <g id="首页备份-3" transform="translate(-610.000000, -700.000000)" fill="#30C6FF">
            <g id="柱子" transform="translate(592.000000, 440.000000)">
                <path d="M80.2849141,291.918208 L94.7849141,296.668208 L94.7849141,306.168208 L80.2849141,310.918208 L65.7849141,306.168208 L65.7849141,296.668208 L80.2849141,291.918208 Z M48.2849141,291.918208 L62.7849141,296.668208 L62.7849141,306.168208 L48.2849141,310.918208 L33.7849141,306.168208 L33.7849141,296.668208 L48.2849141,291.918208 Z M33.2849141,275.918208 L47.7849141,280.668208 L47.7849141,290.168208 L33.2849141,294.918208 L18.7849141,290.168208 L18.7849141,280.668208 L33.2849141,275.918208 Z M64.2849141,275.918208 L78.7849141,280.668208 L78.7849141,290.168208 L64.2849141,294.918208 L49.7849141,290.168208 L49.7849141,280.668208 L64.2849141,275.918208 Z M95.2849141,275.918208 L109.784914,280.668208 L109.784914,290.168208 L95.2849141,294.918208 L80.7849141,290.168208 L80.7849141,280.668208 L95.2849141,275.918208 Z M80.2849141,260.918208 L94.7849141,265.668208 L94.7849141,275.168208 L80.2849141,279.918208 L65.7849141,275.168208 L65.7849141,265.668208 L80.2849141,260.918208 Z M48.2849141,260.918208 L62.7849141,265.668208 L62.7849141,275.168208 L48.2849141,279.918208 L33.7849141,275.168208 L33.7849141,265.668208 L48.2849141,260.918208 Z" id="形状结合备份-17"></path>
            </g>
        </g>
    </g>
</svg>