<?xml version="1.0" encoding="UTF-8"?>
<svg width="14px" height="14px" viewBox="0 0 14 14" version="1.1" xmlns="http://www.w3.org/2000/svg" xmlns:xlink="http://www.w3.org/1999/xlink">
    <title>1-icon/01公共/information</title>
    <defs>
        <path d="M7,0 C10.8659932,0 14,3.13400675 14,7 C14,10.8659932 10.8659932,14 7,14 C3.13400675,14 0,10.8659932 0,7 C0,3.13400675 3.13400675,0 7,0 Z M7,1 C3.6862915,1 1,3.6862915 1,7 C1,10.3137085 3.6862915,13 7,13 C10.3137085,13 13,10.3137085 13,7 C13,3.6862915 10.3137085,1 7,1 Z M7,5.5 C7.24545989,5.5 7.44960837,5.67687516 7.49194433,5.91012437 L7.5,6 L7.5,10.5 C7.5,10.7761424 7.27614237,11 7,11 C6.75454011,11 6.55039163,10.8231248 6.50805567,10.5898756 L6.5,10.5 L6.5,6 C6.5,5.72385763 6.72385763,5.5 7,5.5 Z M7,3 C7.41421356,3 7.75,3.33578644 7.75,3.75 C7.75,4.16421356 7.41421356,4.5 7,4.5 C6.58578644,4.5 6.25,4.16421356 6.25,3.75 C6.25,3.33578644 6.58578644,3 7,3 Z" id="path-1"></path>
    </defs>
    <g id="首页" stroke="none" stroke-width="1" fill="none" fill-rule="evenodd">
        <g transform="translate(-1523.000000, -478.000000)" id="1-icon/01公共/information">
            <g transform="translate(1530.000000, 485.000000) rotate(-180.000000) translate(-1530.000000, -485.000000) translate(1523.000000, 478.000000)">
                <mask id="mask-2" fill="white">
                    <use xlink:href="#path-1"></use>
                </mask>
                <use id="形状结合" fill="#000000" fill-rule="nonzero" xlink:href="#path-1"></use>
                <g id="0-color/Dark/3Secondary" mask="url(#mask-2)" fill="#8D98AA">
                    <g transform="translate(-1.000000, -1.000000)" id="矩形">
                        <rect x="0" y="0" width="16" height="16"></rect>
                    </g>
                </g>
            </g>
        </g>
    </g>
</svg>