<?xml version="1.0" encoding="UTF-8"?>
<svg width="12px" height="14px" viewBox="0 0 12 14" version="1.1" xmlns="http://www.w3.org/2000/svg" xmlns:xlink="http://www.w3.org/1999/xlink">
    <title>1-icon/01公共/library</title>
    <defs>
        <path d="M11.5,1.5 C11.7761424,1.5 12,1.72385763 12,2 C12,2.24545989 11.8231248,2.44960837 11.5898756,2.49194433 L11.5,2.5 L5.5,2.5 C5.22385763,2.5 5,2.27614237 5,2 C5,1.75454011 5.17687516,1.55039163 5.41012437,1.50805567 L5.5,1.5 L11.5,1.5 Z M2.5,0 L1.5,0 C0.671572875,0 0,0.671572875 0,1.5 L0,2.5 C0,3.32842712 0.671572875,4 1.5,4 L2.5,4 C3.32842712,4 4,3.32842712 4,2.5 L4,1.5 C4,0.671572875 3.32842712,0 2.5,0 Z M1.5,1 L2.5,1 C2.77614237,1 3,1.22385763 3,1.5 L3,2.5 C3,2.77614237 2.77614237,3 2.5,3 L1.5,3 C1.22385763,3 1,2.77614237 1,2.5 L1,1.5 C1,1.22385763 1.22385763,1 1.5,1 Z M11.5,6.5 C11.7761424,6.5 12,6.72385763 12,7 C12,7.24545989 11.8231248,7.44960837 11.5898756,7.49194433 L11.5,7.5 L5.5,7.5 C5.22385763,7.5 5,7.27614237 5,7 C5,6.75454011 5.17687516,6.55039163 5.41012437,6.50805567 L5.5,6.5 L11.5,6.5 Z M2.5,5 L1.5,5 C0.671572875,5 0,5.67157288 0,6.5 L0,7.5 C0,8.32842712 0.671572875,9 1.5,9 L2.5,9 C3.32842712,9 4,8.32842712 4,7.5 L4,6.5 C4,5.67157288 3.32842712,5 2.5,5 Z M1.5,6 L2.5,6 C2.77614237,6 3,6.22385763 3,6.5 L3,7.5 C3,7.77614237 2.77614237,8 2.5,8 L1.5,8 C1.22385763,8 1,7.77614237 1,7.5 L1,6.5 C1,6.22385763 1.22385763,6 1.5,6 Z M11.5,11.5 C11.7761424,11.5 12,11.7238576 12,12 C12,12.2454599 11.8231248,12.4496084 11.5898756,12.4919443 L11.5,12.5 L5.5,12.5 C5.22385763,12.5 5,12.2761424 5,12 C5,11.7545401 5.17687516,11.5503916 5.41012437,11.5080557 L5.5,11.5 L11.5,11.5 Z M2.5,10 L1.5,10 C0.671572875,10 0,10.6715729 0,11.5 L0,12.5 C0,13.3284271 0.671572875,14 1.5,14 L2.5,14 C3.32842712,14 4,13.3284271 4,12.5 L4,11.5 C4,10.6715729 3.32842712,10 2.5,10 Z M1.5,11 L2.5,11 C2.77614237,11 3,11.2238576 3,11.5 L3,12.5 C3,12.7761424 2.77614237,13 2.5,13 L1.5,13 C1.22385763,13 1,12.7761424 1,12.5 L1,11.5 C1,11.2238576 1.22385763,11 1.5,11 Z" id="path-1"></path>
    </defs>
    <g id="首页" stroke="none" stroke-width="1" fill="none" fill-rule="evenodd">
        <g transform="translate(-42.000000, -93.000000)" id="编组-3">
            <g transform="translate(16.000000, 64.000000)">
                <g id="1-icon/01公共/library" transform="translate(26.000000, 29.000000)">
                    <mask id="mask-2" fill="white">
                        <use xlink:href="#path-1"></use>
                    </mask>
                    <use id="形状结合" fill="#000000" fill-rule="nonzero" xlink:href="#path-1"></use>
                    <g id="0-color/Dark/3Secondary" mask="url(#mask-2)" fill="#8D98AA">
                        <g transform="translate(-2.000000, -1.000000)" id="矩形">
                            <rect x="0" y="0" width="16" height="16"></rect>
                        </g>
                    </g>
                </g>
            </g>
        </g>
    </g>
</svg>