<?xml version="1.0" encoding="UTF-8"?>
<svg width="14px" height="14px" viewBox="0 0 14 14" version="1.1" xmlns="http://www.w3.org/2000/svg" xmlns:xlink="http://www.w3.org/1999/xlink">
    <title>1-icon/01公共/setting</title>
    <defs>
        <path d="M7.69632334,0 C8.24860809,0 8.69632334,0.44771525 8.69632331,0.999812716 L8.69615822,1.876 L8.91148407,1.964441 C9.27895343,2.12630433 9.62725645,2.32801071 9.9503963,2.56550119 L10.1321582,2.707 L10.8924758,2.26794919 C11.3366046,2.01153127 11.8956688,2.13451622 12.1943642,2.5363416 L12.2585012,2.6339746 L13.2585012,4.3660254 C13.5346435,4.84431803 13.3707684,5.45590843 12.8925863,5.73198696 L12.1321582,6.17 L12.1636037,6.39699556 C12.1744782,6.49661578 12.1826581,6.59672925 12.1881194,6.69725649 L12.1963233,7 C12.1963233,7.20255053 12.1853527,7.403764 12.1636037,7.60300444 L12.1321582,7.829 L12.8924758,8.26794919 C13.3366046,8.52436711 13.5096286,9.07002338 13.3109853,9.52961387 L13.2585012,9.6339746 L12.2585012,11.3660254 C11.9823588,11.844318 11.3707684,12.0081932 10.8923551,11.7319811 L10.1321582,11.292 L9.9503963,11.4344988 C9.62725645,11.6719893 9.27895343,11.8736957 8.91148407,12.035559 L8.69615822,12.123 L8.69632334,13 C8.69632334,13.5128358 8.31028315,13.9355072 7.81294447,13.9932723 L7.69632334,14 L5.69632334,14 C5.14403859,14 4.69632334,13.5522847 4.69632336,13.0001082 L4.69515822,12.123 L4.48165421,12.0357755 C4.11435887,11.8740319 3.76620619,11.6724844 3.44318381,11.4351846 L3.26015822,11.293 L2.50017092,11.7320508 C2.0218783,12.0081932 1.41028789,11.844318 1.13414552,11.3660254 L0.134145518,9.6339746 C-0.141996857,9.15568197 0.0218782983,8.54409157 0.500060367,8.26801304 L1.25915822,7.829 L1.22904296,7.60300444 C1.21816847,7.50338422 1.20998856,7.40327075 1.20452728,7.30274351 L1.19632334,7 C1.19632334,6.79744947 1.20729397,6.596236 1.22904296,6.39699556 L1.25915822,6.17 L0.500170922,5.73205081 C0.0560420571,5.47563289 -0.11698195,4.92997662 0.0816613415,4.47038613 L0.134145518,4.3660254 L1.13414552,2.6339746 C1.41028789,2.15568197 2.0218783,1.99180682 2.49984228,2.26775962 L3.26015822,2.706 L3.44318381,2.56481536 C3.76620619,2.32751564 4.11435887,2.1259681 4.48165421,1.96422448 L4.69515822,1.876 L4.69632334,1 C4.69632334,0.487164161 5.08236353,0.0644928393 5.57970222,0.00672773133 L5.69632334,0 Z M7.69632334,1 L5.69632333,1 L5.69605737,2.22909289 C5.69601011,2.44746918 5.55424705,2.64055286 5.34590897,2.70600093 C4.71666703,2.90367326 4.13973441,3.23838115 3.65443473,3.68380144 C3.49365692,3.83136736 3.25574641,3.85761186 3.06666921,3.7486393 L2.00017092,3.1339746 L1.00017092,4.8660254 L2.06471321,5.48100163 C2.2535983,5.5901188 2.34994317,5.80909501 2.30277251,6.02207168 C2.23224655,6.34049812 2.19632334,6.66774481 2.19632334,7 C2.19632334,7.33225519 2.23224655,7.65950188 2.30277251,7.97792832 C2.34994317,8.19090499 2.2535983,8.4098812 2.06471321,8.51899837 L1.00017092,9.1339746 L2.00017092,10.8660254 L3.06666921,10.2513607 C3.25574641,10.1423881 3.49365692,10.1686326 3.65443473,10.3161986 C4.13973441,10.7616188 4.71666703,11.0963267 5.34590897,11.2939991 C5.55424705,11.3594471 5.69601011,11.5525308 5.69605737,11.7709071 L5.69632334,13 L7.69632334,13 L7.69678374,11.770767 C7.69686552,11.5524274 7.8386122,11.3593898 8.04691251,11.2939442 C8.67647416,11.096143 9.25366487,10.7611659 9.73909979,10.3153835 C9.90001553,10.1676121 10.1382403,10.1414259 10.3274126,10.2507149 L11.3924758,10.8660254 L12.3924758,9.1339746 L11.3279335,8.51899837 C11.1390484,8.4098812 11.0427035,8.19090499 11.0898742,7.97792832 C11.1604001,7.65950188 11.1963233,7.33225519 11.1963233,7 C11.1963233,6.66774481 11.1604001,6.34049812 11.0898742,6.02207168 C11.0427035,5.80909501 11.1390484,5.5901188 11.3279335,5.48100163 L12.3924758,4.8660254 L11.3924758,3.1339746 L10.3274126,3.74928506 C10.1382403,3.85857409 9.90001553,3.83238794 9.73909979,3.68461653 C9.25366487,3.23883411 8.67647416,2.90385702 8.04691251,2.70605585 C7.8386122,2.64061024 7.69686552,2.44757255 7.69678374,2.22923304 L7.69632334,1 Z M6.69715822,4 C8.35401247,4 9.69715822,5.34314575 9.69715822,7 C9.69715822,8.65685425 8.35401247,10 6.69715822,10 C5.04030397,10 3.69715822,8.65685425 3.69715822,7 C3.69715822,5.34314575 5.04030397,4 6.69715822,4 Z M6.69715822,5 C5.59258872,5 4.69715822,5.8954305 4.69715822,7 C4.69715822,8.1045695 5.59258872,9 6.69715822,9 C7.80172772,9 8.69715822,8.1045695 8.69715822,7 C8.69715822,5.8954305 7.80172772,5 6.69715822,5 Z" id="path-1"></path>
    </defs>
    <g id="首页" stroke="none" stroke-width="1" fill="none" fill-rule="evenodd">
        <g transform="translate(-1523.000000, -93.000000)" id="1-icon/01公共/setting">
            <g transform="translate(1523.302842, 93.000000)">
                <mask id="mask-2" fill="white">
                    <use xlink:href="#path-1"></use>
                </mask>
                <use id="蒙版" fill="#000000" fill-rule="nonzero" xlink:href="#path-1"></use>
                <g id="0-color/Dark/3Secondary" mask="url(#mask-2)" fill="#8D98AA">
                    <g transform="translate(-1.302842, -1.000000)" id="矩形">
                        <rect x="0" y="0" width="16" height="16"></rect>
                    </g>
                </g>
            </g>
        </g>
    </g>
</svg>