<?xml version="1.0" encoding="UTF-8"?>
<svg width="8px" height="16px" viewBox="0 0 8 16" version="1.1" xmlns="http://www.w3.org/2000/svg" xmlns:xlink="http://www.w3.org/1999/xlink">
    <title>1-icon/01公共/temperture</title>
    <defs>
        <path d="M3.6,0 C4.98071187,0 6.2,1.11928813 6.2,2.5 L6.199,8.847 L6.32717145,8.9828376 C6.90776862,9.63776195 7.23659659,10.4842345 7.23659659,11.3817017 C7.23659659,13.3800327 5.61662927,15 3.6182983,15 C1.61996733,15 0,13.3800327 0,11.3817017 C0,10.4390789 0.362750022,9.55271141 0.998964734,8.88545374 L1,2.5 C1,1.11928813 2.21928813,0 3.6,0 Z M3.6,1 C2.77157288,1 2,1.67157288 2,2.5 L2,3 L3.5,3 C3.77614237,3 4,3.22385763 4,3.5 C4,3.77614237 3.77614237,4 3.5,4 L2,4 L2,5 L3.5,5 C3.77614237,5 4,5.22385763 4,5.5 C4,5.77614237 3.77614237,6 3.5,6 L2,6 L2,7 L3.5,7 C3.77614237,7 4,7.22385763 4,7.5 C4,7.77614237 3.77614237,8 3.5,8 L2,8 L2,9 C2,9.11308688 1.96245689,9.21740509 1.8991545,9.30117083 C1.87639084,9.38475786 1.83274405,9.46442299 1.76688182,9.53028522 C1.27870023,10.0184668 1,10.6773882 1,11.3817017 C1,12.8277479 2.17225208,14 3.6182983,14 C5.06434452,14 6.23659659,12.8277479 6.23659659,11.3817017 C6.23659659,10.6773882 5.95789637,10.0184668 5.46971478,9.53028522 C5.42176975,9.4823402 5.38559724,9.42708067 5.36119723,9.36809868 C5.2623554,9.27691973 5.2,9.14574181 5.2,9 L5.2,2.5 C5.2,1.67157288 4.42842712,1 3.6,1 Z M3.5,10.5 C4.05228475,10.5 4.5,10.9477153 4.5,11.5 C4.5,12.0128358 4.11395981,12.4355072 3.61662113,12.4932723 L3.5,12.5 C2.94771525,12.5 2.5,12.0522847 2.5,11.5 C2.5,10.9477153 2.94771525,10.5 3.5,10.5 Z" id="path-1"></path>
    </defs>
    <g id="首页" stroke="none" stroke-width="1" fill="none" fill-rule="evenodd">
        <g transform="translate(-1526.000000, -646.000000)" id="1-icon/01公共/temperture">
            <g transform="translate(1526.500000, 646.500000)">
                <mask id="mask-2" fill="white">
                    <use xlink:href="#path-1"></use>
                </mask>
                <use id="蒙版" fill="#979797" fill-rule="nonzero" xlink:href="#path-1"></use>
                <g id="0-color/Dark/3Secondary" mask="url(#mask-2)" fill="#8D98AA">
                    <g transform="translate(-4.500000, -0.500000)" id="矩形">
                        <rect x="0" y="0" width="16" height="16"></rect>
                    </g>
                </g>
            </g>
        </g>
    </g>
</svg>