<?xml version="1.0" encoding="UTF-8"?>
<svg width="14px" height="14px" viewBox="0 0 14 14" version="1.1" xmlns="http://www.w3.org/2000/svg" xmlns:xlink="http://www.w3.org/1999/xlink">
    <title>1-icon/01公共/train</title>
    <defs>
        <path d="M6.87964988,0.07544881 L6.99834012,0.134131218 L12.5034685,3.32787531 C12.7767806,3.48643458 12.9565257,3.76403101 12.9930948,4.0735928 L13,4.19100678 L13,5.90379576 C13,6.17993814 12.7761424,6.40379576 12.5,6.40379576 C12.2545401,6.40379576 12.0503916,6.2269206 12.0080557,5.9936714 L12,5.90379576 L12,4.191 L6.5,1.001 L1,4.191 L1,10.577 L3.56817399,12.0675106 C3.78049156,12.1906845 3.86831818,12.4461212 3.78789143,12.6691214 L3.74975905,12.7509043 C3.62658517,12.9632219 3.37114847,13.0510485 3.14814832,12.9706217 L3.06636541,12.9324894 L0.496531542,11.4416264 C0.22321936,11.2830672 0.0434742832,11.0054707 0.00690515725,10.6959089 L0,10.578495 L0,4.19100678 C0,3.87481415 0.149377057,3.57970291 0.398522324,3.39274484 L0.496531542,3.32787531 L6.00165988,0.134131218 C6.27139904,-0.022355203 6.59615622,-0.0419160055 6.87964988,0.07544881 Z M8.9472136,3.7763932 C9.05698659,3.9959392 8.99008262,4.25763613 8.8003914,4.39981478 L8.7236068,4.4472136 L6.7236068,5.4472136 C6.6109958,5.50351909 6.4824345,5.51478019 6.36344337,5.48099689 L6.2763932,5.4472136 L4.2763932,4.4472136 C4.02940395,4.32371897 3.92929178,4.02338245 4.0527864,3.7763932 C4.1625594,3.5568472 4.41205933,3.45335223 4.63961698,3.51979801 L4.7236068,3.5527864 L6.5,4.44 L8.2763932,3.5527864 C8.52338245,3.42929178 8.82371897,3.52940395 8.9472136,3.7763932 Z M12.5,8 C13.3284271,8 14,8.67157288 14,9.5 L14,12.5 C14,13.3284271 13.3284271,14 12.5,14 L6.5,14 C5.67157288,14 5,13.3284271 5,12.5 L5,9.5 C5,8.67157288 5.67157288,8 6.5,8 Z M12.5,9 L6.5,9 C6.22385763,9 6,9.22385763 6,9.5 L6,12.5 C6,12.7761424 6.22385763,13 6.5,13 L12.5,13 C12.7761424,13 13,12.7761424 13,12.5 L13,9.5 C13,9.22385763 12.7761424,9 12.5,9 Z M7.5,10 C7.77614237,10 8,10.2238576 8,10.5 L8,11.5 C8,11.7761424 7.77614237,12 7.5,12 C7.22385763,12 7,11.7761424 7,11.5 L7,10.5 C7,10.2238576 7.22385763,10 7.5,10 Z M9.5,10 C9.77614237,10 10,10.2238576 10,10.5 L10,11.5 C10,11.7761424 9.77614237,12 9.5,12 C9.22385763,12 9,11.7761424 9,11.5 L9,10.5 C9,10.2238576 9.22385763,10 9.5,10 Z M11.5,10 C11.7761424,10 12,10.2238576 12,10.5 L12,11.5 C12,11.7761424 11.7761424,12 11.5,12 C11.2238576,12 11,11.7761424 11,11.5 L11,10.5 C11,10.2238576 11.2238576,10 11.5,10 Z" id="path-1"></path>
    </defs>
    <g id="首页" stroke="none" stroke-width="1" fill="none" fill-rule="evenodd">
        <g transform="translate(-1523.000000, -944.000000)" id="1-icon/01公共/train">
            <g transform="translate(1523.000000, 944.000000)" id="直线-9-+-矩形-+-矩形备份-+-矩形备份-2-+-矩形备份-3-+-0-color/Dark/3Secondary-蒙版">
                <mask id="mask-2" fill="white">
                    <use xlink:href="#path-1"></use>
                </mask>
                <use id="形状结合" fill="#595959" fill-rule="nonzero" xlink:href="#path-1"></use>
                <g id="0-color/Dark/3Secondary" mask="url(#mask-2)" fill="#8D98AA">
                    <g transform="translate(-1.000000, -1.000000)" id="矩形">
                        <rect x="0" y="0" width="16" height="16"></rect>
                    </g>
                </g>
            </g>
        </g>
    </g>
</svg>