<?xml version="1.0" encoding="UTF-8"?>
<svg width="12px" height="14px" viewBox="0 0 12 14" version="1.1" xmlns="http://www.w3.org/2000/svg" xmlns:xlink="http://www.w3.org/1999/xlink">
    <title>1-icon/01公共/unfold</title>
    <defs>
        <path d="M10.5,0 L1.5,0 C0.671572875,0 0,0.671572875 0,1.5 L0,2.5 C0,3.32842712 0.671572875,4 1.5,4 L10.5,4 C11.3284271,4 12,3.32842712 12,2.5 L12,1.5 C12,0.671572875 11.3284271,0 10.5,0 Z M1.5,1 L10.5,1 C10.7761424,1 11,1.22385763 11,1.5 L11,2.5 C11,2.77614237 10.7761424,3 10.5,3 L1.5,3 C1.22385763,3 1,2.77614237 1,2.5 L1,1.5 C1,1.22385763 1.22385763,1 1.5,1 Z M10.5,5 L1.5,5 C0.671572875,5 0,5.67157288 0,6.5 L0,7.5 C0,8.32842712 0.671572875,9 1.5,9 L10.5,9 C11.3284271,9 12,8.32842712 12,7.5 L12,6.5 C12,5.67157288 11.3284271,5 10.5,5 Z M1.5,6 L10.5,6 C10.7761424,6 11,6.22385763 11,6.5 L11,7.5 C11,7.77614237 10.7761424,8 10.5,8 L1.5,8 C1.22385763,8 1,7.77614237 1,7.5 L1,6.5 C1,6.22385763 1.22385763,6 1.5,6 Z M10.5,10 L1.5,10 C0.671572875,10 0,10.6715729 0,11.5 L0,12.5 C0,13.3284271 0.671572875,14 1.5,14 L10.5,14 C11.3284271,14 12,13.3284271 12,12.5 L12,11.5 C12,10.6715729 11.3284271,10 10.5,10 Z M1.5,11 L10.5,11 C10.7761424,11 11,11.2238576 11,11.5 L11,12.5 C11,12.7761424 10.7761424,13 10.5,13 L1.5,13 C1.22385763,13 1,12.7761424 1,12.5 L1,11.5 C1,11.2238576 1.22385763,11 1.5,11 Z" id="path-1"></path>
    </defs>
    <g id="首页" stroke="none" stroke-width="1" fill="none" fill-rule="evenodd">
        <g transform="translate(-456.000000, -866.000000)" id="编组-3">
            <g transform="translate(16.000000, 64.000000)">
                <g id="1-icon/01公共/unfold" transform="translate(440.000000, 802.000000)">
                    <mask id="mask-2" fill="white">
                        <use xlink:href="#path-1"></use>
                    </mask>
                    <use id="形状结合" fill="#000000" fill-rule="nonzero" xlink:href="#path-1"></use>
                    <g id="0-color/Dark/3Secondary" mask="url(#mask-2)" fill="#8D98AA">
                        <g transform="translate(-2.000000, -1.000000)" id="矩形">
                            <rect x="0" y="0" width="16" height="16"></rect>
                        </g>
                    </g>
                </g>
            </g>
        </g>
    </g>
</svg>