<?xml version="1.0" encoding="utf-8"?>
<!-- Generator: Adobe Illustrator 24.0.1, SVG Export Plug-In . SVG Version: 6.00 Build 0)  -->
<svg version="1.1" id="图层_1" xmlns="http://www.w3.org/2000/svg" xmlns:xlink="http://www.w3.org/1999/xlink" x="0px" y="0px"
	 viewBox="0 0 16 16" style="enable-background:new 0 0 16 16;" xml:space="preserve">
<style type="text/css">
	.st0{fill:#EBAF00;}
	.st1{fill-rule:evenodd;clip-rule:evenodd;fill:#FFFFFF;}
</style>
<title>1-icon/01公共/02告警/alarm</title>
<g id="_x31_-icon_x2F_01公共_x2F_02告警_x2F_alarm">
	<path id="路径" class="st0" d="M14.9,12.7l-3.1-5.1L8.8,2.4C8.6,2.1,8.3,2,8,2C7.7,2,7.4,2.1,7.2,2.4L4.2,7.6l-3.1,5.1
		C0.8,13.3,1.2,14,1.9,14h12.2C14.8,14,15.2,13.3,14.9,12.7z"/>
	<path id="形状" class="st1" d="M8,12c-0.4,0-0.8-0.3-0.8-0.8s0.3-0.8,0.8-0.8s0.8,0.3,0.8,0.8S8.4,12,8,12z M8,4.5
		c0.3,0,0.5,0.2,0.5,0.5v4c0,0.3-0.2,0.5-0.5,0.5C7.7,9.5,7.5,9.3,7.5,9V5C7.5,4.7,7.7,4.5,8,4.5z"/>
</g>
</svg>
