<?xml version="1.0" encoding="UTF-8"?>
<svg width="14px" height="14px" viewBox="0 0 14 14" version="1.1" xmlns="http://www.w3.org/2000/svg" xmlns:xlink="http://www.w3.org/1999/xlink">
    <title>1-icon/01公共/calculate@1x</title>
    <defs>
        <path d="M2.90909097,14 C2.14731273,14 1.56757465,13.32439 1.50551047,12.5034208 L1.50000006,12.3571429 L1.5,6.214 L0.851294134,6.85579836 C0.654792124,7.04981272 0.338216057,7.04779608 0.1442017,6.85129407 C-0.0282555075,6.67662562 -0.0458240241,6.40708383 0.090410605,6.21307958 L0.148705993,6.14420164 L5.92648377,0.439568678 C6.48298981,-0.10989217 7.36136297,-0.144233473 7.9581024,0.336544769 L8.07351636,0.439568678 L13.8512941,6.14420164 C14.0477961,6.33821599 14.0498128,6.65479206 13.8557984,6.85129407 C13.6833412,7.02596252 13.4140451,7.04696353 13.218321,6.91321153 L13.148706,6.85579836 L12.5,6.215 L12.5000001,12.3571429 C12.5000001,13.1933784 11.962583,13.9154459 11.2233826,13.9930947 L11.0909092,14 L2.90909097,14 Z M6.70155699,1.09144574 L6.62907191,1.15116541 L2.44897066,5.27968739 C2.46896712,5.32036074 2.48359933,5.36414736 2.49194439,5.41012437 L2.50000006,5.5 L2.50000006,12.3571429 C2.50000006,12.6963882 2.67133576,12.9457062 2.84962804,12.9921774 L2.90909097,13 L5,13 L5.00000006,9.21428571 L5.00289905,9.08516025 C5.03013468,8.48950496 5.25176724,8 5.77272734,8 L8.22727279,8 L8.33436379,8.00735272 C8.81309817,8.07532611 9.00000006,8.60542198 9.00000006,9.21428571 L9,13 L11.0909092,13 C11.268718,13 11.4578346,12.7846066 11.4938798,12.4667391 L11.5000001,12.3571429 L11.5000001,5.5 C11.5000001,5.42093359 11.5183523,5.34615359 11.5510295,5.27968739 L7.37092822,1.15116541 C7.18947204,0.972006406 6.90574093,0.952099851 6.70155699,1.09144574 Z M7.98100006,9 L6.01800006,9 L6.00346339,9.11672905 L6.00000006,9.21428571 L6,13 L8,13 L8.00000006,9.21428571 L7.99653673,9.11672905 C7.99428635,9.08544614 7.99099852,9.0555752 7.98684875,9.02764415 L7.98100006,9 Z M9.50000006,5.5 C9.77614244,5.5 10.0000001,5.72385763 10.0000001,6 C10.0000001,6.24545989 9.8231249,6.44960837 9.5898757,6.49194433 L9.50000006,6.5 L7.50000006,6.5 C7.22385769,6.5 7.00000006,6.27614237 7.00000006,6 C7.00000006,5.75454011 7.17687522,5.55039163 7.41012443,5.50805567 L7.50000006,5.5 L9.50000006,5.5 Z" id="path-1"></path>
    </defs>
    <g id="控件" stroke="none" stroke-width="1" fill="none" fill-rule="evenodd">
        <g id="left/focus" transform="translate(-17.000000, -9.000000)">
            <g id="1-icon/01公共/calculate" transform="translate(17.000000, 9.000000)">
                <mask id="mask-2" fill="white">
                    <use xlink:href="#path-1"></use>
                </mask>
                <use id="形状结合" fill="#000000" fill-rule="nonzero" xlink:href="#path-1"></use>
                <g id="0-color/Dark/3Secondary" mask="url(#mask-2)" fill="#FFFFFE">
                    <g transform="translate(-1.000000, -1.000000)" id="矩形">
                        <rect x="0" y="0" width="16" height="16"></rect>
                    </g>
                </g>
            </g>
        </g>
    </g>
</svg>