<?xml version="1.0" encoding="UTF-8"?>
<svg width="16px" height="16px" viewBox="0 0 16 16" version="1.1" xmlns="http://www.w3.org/2000/svg" xmlns:xlink="http://www.w3.org/1999/xlink">
    <title>1-icon/01公共/ editing</title>
    <defs>
        <path d="M12.5,1 C13.3284271,1 14,1.67157288 14,2.5 L14,4 L13,4 L13,2.5 C13,2.22385763 12.7761424,2 12.5,2 L6.5,2 L6.5,3.83333333 C6.5,4.70536189 5.83028744,5.42097069 4.97713971,5.49388234 L4.83333333,5.5 L3,5.5 L3,13.5 C3,13.7454599 3.17687516,13.9496084 3.41012437,13.9919443 L3.5,14 L12.5,14 C12.7761424,14 13,13.7761424 13,13.5 L13,8 L14,8 L14,13.5 C14,14.3284271 13.3284271,15 12.5,15 L3.5,15 C2.67157288,15 2,14.3284271 2,13.5 L2,4.99795532 C2,4.87038378 2.04876257,4.74763696 2.13630536,4.65484279 L5.43630536,1.15688747 C5.5307708,1.05675538 5.66234045,1 5.8,1 L12.5,1 Z M12.5784635,3.77530138 L13.992677,5.18951494 C14.3832013,5.58003923 14.3832013,6.21320421 13.992677,6.6037285 L7.628716,12.9676895 L4.80028888,12.9676895 L4.80028888,10.1392624 L11.1642499,3.77530138 C11.5547742,3.38477709 12.1879392,3.38477709 12.5784635,3.77530138 Z M11.8713567,4.48240816 L5.80084497,10.5529199 L5.80084497,11.9671334 L7.21576564,11.9664263 L13.2855703,5.89662172 L11.8713567,4.48240816 Z M5.5,2.546 L3.657,4.5 L4.83333333,4.5 C5.16805136,4.5 5.44515534,4.25332493 5.49277162,3.93184845 L5.5,3.83333333 L5.5,2.546 Z" id="path-1"></path>
    </defs>
    <g id="1-icon/01公共/-editing" stroke="none" stroke-width="1" fill="none" fill-rule="evenodd">
        <mask id="mask-2" fill="white">
            <use xlink:href="#path-1"></use>
        </mask>
        <use id="形状结合" fill="#000000" fill-rule="nonzero" xlink:href="#path-1"></use>
        <g id="0-color/Dark/3Secondary" mask="url(#mask-2)" fill="#8D98AA">
            <rect id="矩形" x="0" y="0" width="16" height="16"></rect>
        </g>
    </g>
</svg>