<?xml version="1.0" encoding="utf-8"?>
<!-- Generator: Adobe Illustrator 24.0.1, SVG Export Plug-In . SVG Version: 6.00 Build 0)  -->
<svg version="1.1" id="图层_1" xmlns="http://www.w3.org/2000/svg" xmlns:xlink="http://www.w3.org/1999/xlink" x="0px" y="0px"
	 viewBox="0 0 16 16" style="enable-background:new 0 0 16 16;" xml:space="preserve">
<style type="text/css">
	.st0{fill:#8D98AA;}
</style>
<title>1-icon/01公共/search</title>
<g id="_x31_-icon_x2F_01公共_x2F_search">
	<g id="形状结合">
		<path id="path-1_1_" class="st0" d="M7.5,1C11.1,1,14,3.9,14,7.5c0,1.6-0.6,3.1-1.6,4.2l2.2,2.2c0.2,0.2,0.2,0.5,0,0.7
			c-0.2,0.2-0.4,0.2-0.6,0.1L14,14.7l-2.3-2.2c-1.1,1-2.6,1.6-4.2,1.6C3.9,14,1,11.1,1,7.5S3.9,1,7.5,1z M7.5,2C4.5,2,2,4.5,2,7.5
			S4.5,13,7.5,13S13,10.5,13,7.5S10.5,2,7.5,2z"/>
	</g>
</g>
</svg>
