<?xml version="1.0" encoding="UTF-8"?>
<svg width="16px" height="16px" viewBox="0 0 16 16" version="1.1" xmlns="http://www.w3.org/2000/svg" xmlns:xlink="http://www.w3.org/1999/xlink">
    <title>1-icon/01公共/upgrade</title>
    <defs>
        <path d="M8.29408585,1.09563196 L13.7940858,5.09563196 C14.1857082,5.38044824 13.98424,6 13.5,6 L11.9990412,6 L12,9.5 C12,10.3284271 11.3284271,11 10.5,11 L5.5,11 C4.67157288,11 4,10.3284271 4,9.5 L3.99904121,6 L2.5,6 C2.01575996,6 1.81429176,5.38044824 2.20591415,5.09563196 L7.70591415,1.09563196 C7.88123941,0.968122681 8.11876059,0.968122681 8.29408585,1.09563196 Z M8,2.118 L4.037,5 L4.5,5 C4.74545989,5 4.94960837,5.17687516 4.99194433,5.41012437 L5,5.5 L5,9.5 C5,9.77614237 5.22385763,10 5.5,10 L10.5,10 C10.7761424,10 11,9.77614237 11,9.5 L11,5.5 C11,5.22385763 11.2238576,5 11.5,5 L11.962,5 L8,2.118 Z M13.5,14 C13.7761424,14 14,14.2238576 14,14.5 C14,14.7454599 13.8231248,14.9496084 13.5898756,14.9919443 L13.5,15 L2.5,15 C2.22385763,15 2,14.7761424 2,14.5 C2,14.2238576 2.22385763,14 2.5,14 L13.5,14 Z M2.5,12 L13.5,12 C13.7761424,12 14,12.2238576 14,12.5 C14,12.7761424 13.7761424,13 13.5,13 L2.5,13 C2.22385763,13 2,12.7761424 2,12.5 C2,12.2238576 2.22385763,12 2.5,12 Z" id="path-1"></path>
    </defs>
    <g id="1-icon/01公共/upgrade" stroke="none" stroke-width="1" fill="none" fill-rule="evenodd">
        <mask id="mask-2" fill="white">
            <use xlink:href="#path-1"></use>
        </mask>
        <use id="形状结合" fill="#979797" fill-rule="nonzero" xlink:href="#path-1"></use>
        <g id="0-color/Dark/3Secondary" mask="url(#mask-2)" fill="#8D98AA">
            <rect id="矩形" x="0" y="0" width="16" height="16"></rect>
        </g>
    </g>
</svg>