<?xml version="1.0" encoding="UTF-8"?>
<svg width="16px" height="16px" viewBox="0 0 16 16" version="1.1" xmlns="http://www.w3.org/2000/svg" xmlns:xlink="http://www.w3.org/1999/xlink">
    <title>1-icon/01公共/exit</title>
    <defs>
        <path d="M11.5,1 C11.7761424,1 12,1.22385763 12,1.5 C12,1.74545989 11.8231248,1.94960837 11.5898756,1.99194433 L11.5,2 L3.5,2 C3.25987323,2 3.04697465,2.2046264 3.0067962,2.48663792 L3,2.58333333 L3,13.4166667 C3,13.714304 3.18888591,13.9486941 3.42116577,13.9925958 L3.5,14 L11.5,14 C11.7761424,14 12,14.2238576 12,14.5 C12,14.7454599 11.8231248,14.9496084 11.5898756,14.9919443 L11.5,15 L3.5,15 C2.70878035,15 2.07412374,14.360075 2.00604838,13.5595124 L2,13.4166667 L2,2.58333333 C2,1.76553057 2.59069996,1.08017212 3.36208168,1.00654526 L3.5,1 L11.5,1 Z M10.9481012,4.76016403 L11.0173491,4.81801948 L13.8457762,7.64644661 C14.0193426,7.82001296 14.0386277,8.08943736 13.9036317,8.2843055 L13.8457762,8.35355339 L11.0173491,11.1819805 C10.8220869,11.3772427 10.5055044,11.3772427 10.3102423,11.1819805 C10.136676,11.0084142 10.1173908,10.7389898 10.2523869,10.5441216 L10.3102423,10.4748737 L12.284,8.5 L6,8.5 C5.72385763,8.5 5.5,8.27614237 5.5,8 C5.5,7.75454011 5.67687516,7.55039163 5.91012437,7.50805567 L6,7.5 L12.284,7.5 L10.3102423,5.52512627 C10.136676,5.35155991 10.1173908,5.08213551 10.2523869,4.88726737 L10.3102423,4.81801948 C10.4838087,4.64445313 10.7532331,4.62516798 10.9481012,4.76016403 Z" id="path-1"></path>
    </defs>
    <g id="1-icon/01公共/exit" stroke="none" stroke-width="1" fill="none" fill-rule="evenodd">
        <mask id="mask-2" fill="white">
            <use xlink:href="#path-1"></use>
        </mask>
        <use id="形状结合" fill="#000000" fill-rule="nonzero" xlink:href="#path-1"></use>
        <g id="0-color/Dark/3Secondary" mask="url(#mask-2)" fill="#8D98AA">
            <rect id="矩形" x="0" y="0" width="16" height="16"></rect>
        </g>
    </g>
</svg>