<?xml version="1.0" encoding="utf-8"?>
<!-- Generator: Adobe Illustrator 24.0.1, SVG Export Plug-In . SVG Version: 6.00 Build 0)  -->
<svg version="1.1" id="图层_1" xmlns="http://www.w3.org/2000/svg" xmlns:xlink="http://www.w3.org/1999/xlink" x="0px" y="0px"
	 viewBox="0 0 16 16" style="enable-background:new 0 0 16 16;" xml:space="preserve">
<style type="text/css">
	.st0{fill:#8D98AA;}
</style>
	<title>1-icon/01公共/reset_hardware</title>
	<path id="path-1_1_" class="st0" d="M12.6,14c0.2,0,0.4,0.2,0.4,0.5c0,0.2-0.1,0.4-0.3,0.5l-0.1,0H3.4C3.2,15,3,14.8,3,14.5
	c0-0.2,0.1-0.4,0.3-0.5l0.1,0H12.6z M13.5,2C14.3,2,15,2.7,15,3.5v8c0,0.8-0.7,1.5-1.5,1.5h-11C1.7,13,1,12.3,1,11.5v-8
	C1,2.7,1.7,2,2.5,2H13.5z M13.5,3h-11C2.2,3,2,3.2,2,3.5v8C2,11.8,2.2,12,2.5,12h11c0.3,0,0.5-0.2,0.5-0.5v-8C14,3.2,13.8,3,13.5,3z
	 M7.9,4c1.9,0,3.5,1.6,3.5,3.5S9.9,11,7.9,11c-0.9,0-1.8-0.4-2.5-1c-0.2-0.2-0.2-0.5,0-0.7s0.5-0.2,0.7,0C6.6,9.7,7.3,10,7.9,10
	c1.4,0,2.5-1.1,2.5-2.5S9.3,5,7.9,5C6.9,5,6,5.7,5.6,6.6l0.4,0c0.3,0,0.5,0.2,0.5,0.5c0,0.3-0.2,0.5-0.5,0.5H5c-0.6,0-1-0.4-1-1v-1
	c0-0.3,0.2-0.5,0.5-0.5c0.2,0,0.4,0.2,0.5,0.4l0,0.1l0.1-0.2C5.8,4.6,6.8,4,7.9,4z"/>
</svg>
