<?xml version="1.0" encoding="utf-8"?>
<!-- Generator: Adobe Illustrator 24.0.1, SVG Export Plug-In . SVG Version: 6.00 Build 0)  -->
<svg version="1.1" id="图层_1" xmlns="http://www.w3.org/2000/svg" xmlns:xlink="http://www.w3.org/1999/xlink" x="0px" y="0px"
	 viewBox="0 0 16 16" style="enable-background:new 0 0 16 16;" xml:space="preserve">
<style type="text/css">
	.st0{fill:#8D98AA;}
</style>
<title>1-icon/01公共/reset</title>
<path id="path-1_1_" class="st0" d="M3.4,1.4c0.2,0.2,0.2,0.5,0,0.7L2.5,3l6.9,0C12.5,3,15,5.5,15,8.5S12.5,14,9.4,14H2.5
	C2.2,14,2,13.8,2,13.5S2.2,13,2.5,13h6.9C12,13,14,11,14,8.5S12,4,9.4,4H2.5l0,0l0.9,0.9c0.2,0.2,0.2,0.5,0,0.7
	c-0.2,0.2-0.5,0.2-0.7,0L1.3,4.2c-0.4-0.4-0.4-1,0-1.4l1.4-1.4C2.9,1.2,3.2,1.2,3.4,1.4z M10.5,10c0.3,0,0.5,0.2,0.5,0.5
	S10.8,11,10.5,11h-6C4.2,11,4,10.8,4,10.5S4.2,10,4.5,10H10.5z M10.5,8C10.8,8,11,8.2,11,8.5C11,8.8,10.8,9,10.5,9h-6
	C4.2,9,4,8.8,4,8.5C4,8.2,4.2,8,4.5,8H10.5z M10.5,6C10.8,6,11,6.2,11,6.5S10.8,7,10.5,7h-6C4.2,7,4,6.8,4,6.5S4.2,6,4.5,6H10.5z"/>
</svg>
