<?xml version="1.0" encoding="utf-8"?>
<!-- Generator: Adobe Illustrator 24.0.1, SVG Export Plug-In . SVG Version: 6.00 Build 0)  -->
<svg version="1.1" id="图层_1" xmlns="http://www.w3.org/2000/svg" xmlns:xlink="http://www.w3.org/1999/xlink" x="0px" y="0px"
	 viewBox="0 0 16 16" style="enable-background:new 0 0 16 16;" xml:space="preserve">
<style type="text/css">
	.st0{fill:#8D98AA;}
</style>
<title>1-icon/01公共/classified</title>
<g id="_x31_-icon_x2F_01公共_x2F_classified">
	<g id="形状结合">
		<path id="path-1_1_" class="st0" d="M8.4,0.9L10.3,2c0.7,0.4,1.4,0.8,2.2,1l1,0.4C13.8,3.5,14,3.8,14,4.1v3.1c0,0.4,0,0.9-0.1,1.3
			c-0.3-0.2-0.6-0.4-0.9-0.5c0-0.2,0-0.4,0-0.6l0-0.3V4.3L12.1,4c-0.7-0.2-1.3-0.5-1.9-0.9L9.8,2.9L8,1.8l-1.8,1
			C5.5,3.3,4.7,3.7,3.9,4L3,4.3v2.9c0,1.8,0.8,3.6,2.2,4.7l0.2,0.2l2.6,2l0.4-0.3c0,0.4,0.1,0.7,0.3,1L8.5,15
			c-0.3,0.2-0.6,0.2-0.9,0l-2.7-2.1C3,11.6,2,9.5,2,7.2V4.1c0-0.3,0.2-0.6,0.5-0.7l1-0.4C4.3,2.7,5,2.4,5.7,2l1.9-1.1
			C7.9,0.8,8.1,0.8,8.4,0.9z M10.1,12.4c0.3,0,0.5,0.2,0.5,0.5v1.4c0,0.3-0.2,0.5-0.5,0.5c-0.3,0-0.5-0.2-0.5-0.5v-1.4
			C9.6,12.6,9.8,12.4,10.1,12.4z M11.7,10.8c0.3,0,0.5,0.2,0.5,0.5v3c0,0.3-0.2,0.5-0.5,0.5s-0.5-0.2-0.5-0.5v-3
			C11.2,11,11.4,10.8,11.7,10.8z M13.3,9.2c0.3,0,0.5,0.2,0.5,0.5v4.6c0,0.3-0.2,0.5-0.5,0.5s-0.5-0.2-0.5-0.5V9.7
			C12.8,9.4,13,9.2,13.3,9.2z M8,7.7l0,5.5c-0.1,0-0.1,0-0.2-0.1L6,11.6c-1.2-1-1.9-2.4-2-3.9H8z M7,8.7H5.2l0,0.1
			c0.2,0.7,0.6,1.3,1.2,1.8l0.2,0.2L7,11.1L7,8.7z M8,2.8c0,0,0.1,0,0.1,0l1.4,0.8C10,4,10.6,4.3,11.1,4.5l0.7,0.3
			C11.9,4.8,12,4.9,12,5v2.4c0,0.1,0,0.2,0,0.3l-4,0L8,2.8z M9,4.5l0,2.2l2,0V5.5l-0.2-0.1c-0.5-0.2-1-0.4-1.5-0.7L9,4.5z"/>
	</g>
</g>
</svg>
