<?xml version="1.0" encoding="utf-8"?>
<!-- Generator: Adobe Illustrator 24.0.1, SVG Export Plug-In . SVG Version: 6.00 Build 0)  -->
<svg version="1.1" id="图层_1" xmlns="http://www.w3.org/2000/svg" xmlns:xlink="http://www.w3.org/1999/xlink" x="0px" y="0px"
	 viewBox="0 0 16 16" style="enable-background:new 0 0 16 16;" xml:space="preserve">
<style type="text/css">
	.st0{fill:#8D98AA;}
</style>
<title>1-icon/01公共/alarm</title>
<g id="_x31_-icon_x2F_01公共_x2F_alarm">
	<g id="形状结合">
		<path id="path-1_1_" class="st0" d="M8,4c2.8,0,5,2.2,5,5v5h0.5c0.3,0,0.5,0.2,0.5,0.5S13.8,15,13.5,15h-11C2.2,15,2,14.8,2,14.5
			S2.2,14,2.5,14H3V9c0-2.7,2.1-4.9,4.8-5L8,4z M8,5C5.8,5,4,6.8,4,9v5h3.5l0-3.1C6.7,10.7,6.1,10,6,9.1L6,9c0-1.1,0.9-2,2-2
			s2,0.9,2,2c0,0.9-0.6,1.7-1.5,1.9l0,3.1H12V9c0-2.1-1.7-3.9-3.8-4L8,5z M8,8C7.4,8,7,8.4,7,9s0.4,1,1,1s1-0.4,1-1S8.6,8,8,8z M8,1
			c0.3,0,0.5,0.2,0.5,0.5v1C8.5,2.8,8.3,3,8,3C7.7,3,7.5,2.8,7.5,2.5v-1C7.5,1.2,7.7,1,8,1z M12,2.1c0.2,0.1,0.3,0.4,0.2,0.7
			l-0.5,0.9c-0.1,0.2-0.4,0.3-0.7,0.2c-0.2-0.1-0.3-0.4-0.2-0.7l0.5-0.9C11.5,2,11.8,1.9,12,2.1z M4,2.1C4.2,1.9,4.5,2,4.7,2.3
			l0.5,0.9C5.3,3.4,5.2,3.7,5,3.8C4.8,3.9,4.5,3.9,4.3,3.6L3.8,2.8C3.7,2.5,3.8,2.2,4,2.1z"/>
	</g>
</g>
</svg>
