<?xml version="1.0" encoding="utf-8"?>
<!-- Generator: Adobe Illustrator 24.0.1, SVG Export Plug-In . SVG Version: 6.00 Build 0)  -->
<svg version="1.1" id="图层_1" xmlns="http://www.w3.org/2000/svg" xmlns:xlink="http://www.w3.org/1999/xlink" x="0px" y="0px"
	 viewBox="0 0 68 56" style="enable-background:new 0 0 68 56;" xml:space="preserve">
<style type="text/css">
	.st0{fill:#8D98AA;}
</style>
<title>1-icon/固件升级/硬盘</title>
<g id="_x31_-icon_x2F_固件升级_x2F_硬盘">
	<path id="形状结合" class="st0" d="M60,4c2.2,0,4,1.8,4,4v40c0,2.2-1.8,4-4,4H8c-2.2,0-4-1.8-4-4V8c0-2.2,1.8-4,4-4H60z M60,6
		H8C6.9,6,6,6.9,6,8v40c0,1.1,0.9,2,2,2h52c1.1,0,2-0.9,2-2V8C62,6.9,61.1,6,60,6z M11,43c1.1,0,2,0.9,2,2s-0.9,2-2,2s-2-0.9-2-2
		S9.9,43,11,43z M57,43c1.1,0,2,0.9,2,2s-0.9,2-2,2s-2-0.9-2-2S55.9,43,57,43z M52,15c0.3,0,0.5,0.1,0.7,0.3l5,5
		c0.2,0.2,0.3,0.4,0.3,0.7v16c0,0.4-0.2,0.7-0.5,0.9l-5,3C52.4,41,52.2,41,52,41H25c-7.2,0-13-5.8-13-13s5.8-13,13-13H52z M51.6,17
		l-19.7,0c3.6,2.3,6.1,6.4,6.1,11c0,4.6-2.4,8.7-6.1,11l19.8,0l4.3-2.6v-15L51.6,17z M25,17c-6.1,0-11,4.9-11,11s4.9,11,11,11
		s11-4.9,11-11S31.1,17,25,17z M51,22c0.6,0,1,0.4,1,1v12c0,0.6-0.4,1-1,1s-1-0.4-1-1V23C50,22.5,50.4,22,51,22z M25,21
		c3.9,0,7,3.1,7,7s-3.1,7-7,7s-7-3.1-7-7S21.1,21,25,21z M25,23c-2.8,0-5,2.2-5,5s2.2,5,5,5s5-2.2,5-5S27.8,23,25,23z M25,26.5
		c0.8,0,1.5,0.7,1.5,1.5s-0.7,1.5-1.5,1.5s-1.5-0.7-1.5-1.5S24.2,26.5,25,26.5z M11,9c1.1,0,2,0.9,2,2s-0.9,2-2,2s-2-0.9-2-2
		S9.9,9,11,9z M57,9c1.1,0,2,0.9,2,2s-0.9,2-2,2s-2-0.9-2-2S55.9,9,57,9z"/>
</g>
</svg>
