<?xml version="1.0" encoding="utf-8"?>
<!-- Generator: Adobe Illustrator 24.0.1, SVG Export Plug-In . SVG Version: 6.00 Build 0)  -->
<svg version="1.1" id="图层_1" xmlns="http://www.w3.org/2000/svg" xmlns:xlink="http://www.w3.org/1999/xlink" x="0px" y="0px"
	 viewBox="0 0 16 16" style="enable-background:new 0 0 16 16;" xml:space="preserve">
<style type="text/css">
	.st0{fill:#8D98AA;}
</style>
<title>1-icon/01公共/list-view</title>
<g id="_x31_-icon_x2F_01公共_x2F_list-view">
	<g id="形状结合">
		<path id="path-1_1_" class="st0" d="M12.5,1C13.3,1,14,1.7,14,2.5v11c0,0.8-0.7,1.5-1.5,1.5h-9C2.7,15,2,14.3,2,13.5v-11
			C2,1.7,2.7,1,3.5,1H12.5z M12.5,2h-9C3.2,2,3,2.2,3,2.5v11C3,13.8,3.2,14,3.5,14h9c0.3,0,0.5-0.2,0.5-0.5v-11
			C13,2.2,12.8,2,12.5,2z M11,10.5c0.3,0,0.5,0.2,0.5,0.5c0,0.2-0.2,0.4-0.4,0.5l-0.1,0H5c-0.3,0-0.5-0.2-0.5-0.5
			c0-0.2,0.2-0.4,0.4-0.5l0.1,0H11z M11,7.5c0.3,0,0.5,0.2,0.5,0.5c0,0.2-0.2,0.4-0.4,0.5l-0.1,0H5C4.7,8.5,4.5,8.3,4.5,8
			c0-0.2,0.2-0.4,0.4-0.5l0.1,0H11z M11,4.5c0.3,0,0.5,0.2,0.5,0.5c0,0.2-0.2,0.4-0.4,0.5l-0.1,0H5C4.7,5.5,4.5,5.3,4.5,5
			c0-0.2,0.2-0.4,0.4-0.5l0.1,0H11z"/>
	</g>
</g>
</svg>
