<?xml version="1.0" encoding="utf-8"?>
<!-- Generator: Adobe Illustrator 24.0.1, SVG Export Plug-In . SVG Version: 6.00 Build 0)  -->
<svg version="1.1" id="图层_1" xmlns="http://www.w3.org/2000/svg" xmlns:xlink="http://www.w3.org/1999/xlink" x="0px" y="0px"
	 viewBox="0 0 16 16" style="enable-background:new 0 0 16 16;" xml:space="preserve">
<style type="text/css">
	.st0{fill:#8D98AA;}
</style>
<title>1-icon/01公共/elementary</title>
<g id="_x31_-icon_x2F_01公共_x2F_elementary">
	<g id="形状结合">
		<path id="path-1_1_" class="st0" d="M11.4,2l1.1,0C13.3,2,14,2.7,14,3.5v10c0,0.8-0.7,1.5-1.5,1.5h-9C2.7,15,2,14.3,2,13.5v-10
			C2,2.7,2.7,2,3.5,2l1.1,0c0,0.2-0.1,0.3-0.1,0.5c0,0.2,0,0.3,0.1,0.5L3.5,3C3.2,3,3,3.2,3,3.5v10C3,13.8,3.2,14,3.5,14h9
			c0.3,0,0.5-0.2,0.5-0.5v-10C13,3.2,12.8,3,12.5,3l-1.1,0c0-0.2,0.1-0.3,0.1-0.5C11.5,2.3,11.5,2.2,11.4,2z M9,11.5
			c0.3,0,0.5,0.2,0.5,0.5c0,0.2-0.2,0.4-0.4,0.5l-0.1,0H5c-0.3,0-0.5-0.2-0.5-0.5c0-0.2,0.2-0.4,0.4-0.5l0.1,0H9z M11,8.5
			c0.3,0,0.5,0.2,0.5,0.5c0,0.2-0.2,0.4-0.4,0.5l-0.1,0H5C4.7,9.5,4.5,9.3,4.5,9c0-0.2,0.2-0.4,0.4-0.5l0.1,0H11z M11,5.5
			c0.3,0,0.5,0.2,0.5,0.5c0,0.2-0.2,0.4-0.4,0.5l-0.1,0H5C4.7,6.5,4.5,6.3,4.5,6c0-0.2,0.2-0.4,0.4-0.5l0.1,0H11z M9.5,1
			C10.3,1,11,1.7,11,2.5S10.3,4,9.5,4h-3C5.7,4,5,3.3,5,2.5S5.7,1,6.5,1H9.5z M9.5,2h-3C6.2,2,6,2.2,6,2.5S6.2,3,6.5,3h3
			C9.8,3,10,2.8,10,2.5S9.8,2,9.5,2z"/>
	</g>
</g>
</svg>
