<?xml version="1.0" encoding="utf-8"?>
<!-- Generator: Adobe Illustrator 24.0.1, SVG Export Plug-In . SVG Version: 6.00 Build 0)  -->
<svg version="1.1" id="图层_1" xmlns="http://www.w3.org/2000/svg" xmlns:xlink="http://www.w3.org/1999/xlink" x="0px" y="0px"
	 viewBox="0 0 16 16" style="enable-background:new 0 0 16 16;" xml:space="preserve">
<style type="text/css">
	.st0{fill:#fff;}
</style>
<title>1-icon/01公共/play</title>
<g id="_x31_-icon_x2F_01公共_x2F_play">
	<path id="形状" class="st0" d="M12.5,6.8L7,2.3C6.7,2.1,6.4,2,6,2C5.2,2,4.5,2.7,4.5,3.5v8.9c0,0.4,0.1,0.7,0.3,1
		c0.5,0.7,1.5,0.8,2.2,0.2l5.5-4.5C12.6,9.1,12.7,9,12.8,9C13.3,8.3,13.2,7.3,12.5,6.8z M12,8.3C11.9,8.3,11.9,8.4,12,8.3l-5.6,4.5
		C6.1,13,5.8,13,5.6,12.8c-0.1-0.1-0.1-0.2-0.1-0.3V3.5C5.5,3.2,5.8,3,6,3c0.1,0,0.2,0,0.3,0.1l5.5,4.5C12.1,7.8,12.1,8,12,8.3
		L12,8.3z"/>
</g>
</svg>
