<?xml version="1.0" encoding="utf-8"?>
<!-- Generator: Adobe Illustrator 24.0.1, SVG Export Plug-In . SVG Version: 6.00 Build 0)  -->
<svg version="1.1" id="图层_1" xmlns="http://www.w3.org/2000/svg" xmlns:xlink="http://www.w3.org/1999/xlink" x="0px" y="0px"
	 viewBox="0 0 16 16" style="enable-background:new 0 0 16 16;" xml:space="preserve">
<style type="text/css">
	.st0{fill:#8D98AA;}
</style>
<title>1-icon/01公共/ editing</title>
<g id="_x31_-icon_x2F_01公共_x2F_-editing">
	<g id="形状结合">
		<path id="path-1_1_" class="st0" d="M12.5,1C13.3,1,14,1.7,14,2.5V4h-1V2.5C13,2.2,12.8,2,12.5,2h-6v1.8c0,0.9-0.7,1.6-1.5,1.7
			l-0.1,0H3v8c0,0.2,0.2,0.4,0.4,0.5l0.1,0h9c0.3,0,0.5-0.2,0.5-0.5V8h1v5.5c0,0.8-0.7,1.5-1.5,1.5h-9C2.7,15,2,14.3,2,13.5V5
			c0-0.1,0-0.3,0.1-0.3l3.3-3.5C5.5,1.1,5.7,1,5.8,1H12.5z M12.6,3.8L14,5.2c0.4,0.4,0.4,1,0,1.4L7.6,13H4.8v-2.8l6.4-6.4
			C11.6,3.4,12.2,3.4,12.6,3.8z M11.9,4.5l-6.1,6.1V12l1.4,0l6.1-6.1L11.9,4.5z M5.5,2.5l-1.8,2h1.2c0.3,0,0.6-0.2,0.7-0.6l0-0.1
			V2.5z"/>
	</g>
</g>
</svg>
