<?xml version="1.0" encoding="utf-8"?>
<!-- Generator: Adobe Illustrator 24.0.1, SVG Export Plug-In . SVG Version: 6.00 Build 0)  -->
<svg version="1.1" id="图层_1" xmlns="http://www.w3.org/2000/svg" xmlns:xlink="http://www.w3.org/1999/xlink" x="0px" y="0px"
	 viewBox="0 0 16 16" style="enable-background:new 0 0 16 16;" xml:space="preserve">
<style type="text/css">
	.st0{fill:#8D98AA;}
</style>
<title>1-icon/01公共/open</title>
<g id="_x31_-icon_x2F_01公共_x2F_open">
	<g id="形状结合">
		<path id="path-1_1_" class="st0" d="M8,0.7c4.1,0,7.3,3.3,7.3,7.3s-3.3,7.3-7.3,7.3S0.7,12.1,0.7,8S3.9,0.7,8,0.7z M8,1.7
			C4.5,1.7,1.7,4.5,1.7,8s2.8,6.3,6.3,6.3s6.3-2.8,6.3-6.3S11.5,1.7,8,1.7z M11.1,4.2c0.2,0,0.3,0.1,0.4,0.2C12.4,5.3,13,6.6,13,8
			c0,2.8-2.2,5-5,5s-5-2.2-5-5c0-1.4,0.6-2.7,1.5-3.6c0.1-0.1,0.2-0.1,0.4-0.1c0.3,0,0.5,0.2,0.5,0.5c0,0.1,0,0.2-0.1,0.3
			C4.5,5.8,4,6.9,4,8c0,2.2,1.8,4,4,4s4-1.8,4-4c0-1.1-0.5-2.2-1.2-2.9c-0.1-0.1-0.2-0.2-0.2-0.4C10.6,4.5,10.8,4.2,11.1,4.2z
			 M8,3.1c0.3,0,0.6,0.3,0.6,0.6v3.7C8.6,7.7,8.3,8,8,8C7.7,8,7.4,7.7,7.4,7.4V3.7C7.4,3.4,7.7,3.1,8,3.1z"/>
	</g>
</g>
</svg>
