<?xml version="1.0" encoding="utf-8"?>
<!-- Generator: Adobe Illustrator 24.0.1, SVG Export Plug-In . SVG Version: 6.00 Build 0)  -->
<svg version="1.1" id="图层_1" xmlns="http://www.w3.org/2000/svg" xmlns:xlink="http://www.w3.org/1999/xlink" x="0px" y="0px"
	 viewBox="0 0 16 16" style="enable-background:new 0 0 16 16;" xml:space="preserve">
<style type="text/css">
	.st0{fill:#fff;}
</style>
<title>1-icon/01公共/suspended</title>
<g id="_x31_-icon_x2F_01公共_x2F_suspended">
	<g id="形状结合">
		<path id="path-1_1_" class="st0" d="M5,2c0.2,0,0.4,0.2,0.5,0.4l0,0.1v11C5.5,13.8,5.3,14,5,14c-0.2,0-0.4-0.2-0.5-0.4l0-0.1v-11
			C4.5,2.2,4.7,2,5,2z M11,2c0.2,0,0.4,0.2,0.5,0.4l0,0.1v11c0,0.3-0.2,0.5-0.5,0.5c-0.2,0-0.4-0.2-0.5-0.4l0-0.1v-11
			C10.5,2.2,10.7,2,11,2z"/>
	</g>
</g>
</svg>
