<?xml version="1.0" encoding="utf-8"?>
<!-- Generator: Adobe Illustrator 24.0.1, SVG Export Plug-In . SVG Version: 6.00 Build 0)  -->
<svg version="1.1" id="图层_1" xmlns="http://www.w3.org/2000/svg" xmlns:xlink="http://www.w3.org/1999/xlink" x="0px" y="0px"
	 viewBox="0 0 16 16" style="enable-background:new 0 0 16 16;" xml:space="preserve">
<style type="text/css">
	.st0{fill:#8D98AA;}
</style>
<title>1-icon/01公共/upgrade</title>
<g id="_x31_-icon_x2F_01公共_x2F_upgrade">
	<g id="形状结合">
		<path id="path-1_1_" class="st0" d="M8.3,1.1l5.5,4C14.2,5.4,14,6,13.5,6H12l0,3.5c0,0.8-0.7,1.5-1.5,1.5h-5C4.7,11,4,10.3,4,9.5
			L4,6H2.5C2,6,1.8,5.4,2.2,5.1l5.5-4C7.9,1,8.1,1,8.3,1.1z M8,2.1L4,5h0.5C4.7,5,4.9,5.2,5,5.4l0,0.1v4C5,9.8,5.2,10,5.5,10h5
			c0.3,0,0.5-0.2,0.5-0.5v-4C11,5.2,11.2,5,11.5,5H12L8,2.1z M13.5,14c0.3,0,0.5,0.2,0.5,0.5c0,0.2-0.2,0.4-0.4,0.5l-0.1,0h-11
			C2.2,15,2,14.8,2,14.5S2.2,14,2.5,14H13.5z M2.5,12h11c0.3,0,0.5,0.2,0.5,0.5S13.8,13,13.5,13h-11C2.2,13,2,12.8,2,12.5
			S2.2,12,2.5,12z"/>
	</g>
</g>
</svg>
