<?xml version="1.0" encoding="utf-8"?>
<!-- Generator: Adobe Illustrator 24.0.1, SVG Export Plug-In . SVG Version: 6.00 Build 0)  -->
<svg version="1.1" id="图层_1" xmlns="http://www.w3.org/2000/svg" xmlns:xlink="http://www.w3.org/1999/xlink" x="0px" y="0px"
	 viewBox="0 0 16 16" style="enable-background:new 0 0 16 16;" xml:space="preserve">
<style type="text/css">
	.st0{fill:#fff;}
</style>
<title>1-icon/01公共/upload</title>
<g id="_x31_-icon_x2F_01公共_x2F_upload">
	<g id="形状结合">
		<path id="path-1_1_" class="st0" d="M13.5,2.1c0.3,0,0.5,0.2,0.5,0.5c0,0.2-0.2,0.4-0.4,0.5l-0.1,0l-0.5,0c0.4,0.4,0.8,1,1.1,1.5
			c1.9,3.4,0.7,7.6-2.7,9.5c-1.3,0.7-2.7,1-4.1,0.8c-0.3,0-0.5-0.3-0.4-0.5c0-0.3,0.3-0.5,0.5-0.4c1.2,0.1,2.4-0.1,3.5-0.7
			c2.9-1.6,3.9-5.3,2.3-8.2C12.9,4.5,12.5,4,12,3.5l0,1.1c0,0.2-0.2,0.4-0.4,0.5l-0.1,0c-0.2,0-0.4-0.2-0.5-0.4l0-0.1v-2
			c0-0.2,0.2-0.4,0.4-0.5l0.1,0H13.5z M8.5,1C8.8,1,9,1.3,9,1.6S8.7,2,8.5,2C7.3,1.9,6.1,2.2,5,2.8C2.1,4.5,1.1,8.1,2.8,11
			c0.3,0.6,0.7,1.1,1.2,1.5l0-1c0-0.2,0.2-0.4,0.4-0.5l0.1,0c0.2,0,0.4,0.2,0.5,0.4l0,0.1v2c0,0.2-0.2,0.4-0.4,0.5l-0.1,0h-2
			C2.2,14,2,13.8,2,13.5c0-0.2,0.2-0.4,0.4-0.5l0.1,0l0.6,0c-0.4-0.4-0.8-0.9-1.2-1.5C0,8.2,1.2,3.9,4.5,1.9C5.7,1.2,7.1,0.9,8.5,1z
			"/>
	</g>
</g>
</svg>
