<?xml version="1.0" encoding="utf-8"?>
<!-- Generator: Adobe Illustrator 26.3.1, SVG Export Plug-In . SVG Version: 6.00 Build 0)  -->
<svg version="1.1" id="图层_1" xmlns="http://www.w3.org/2000/svg" xmlns:xlink="http://www.w3.org/1999/xlink" x="0px" y="0px"
	 viewBox="0 0 14 14" style="enable-background:new 0 0 14 14;" xml:space="preserve">
<style type="text/css">
	.st0{fill:#FFFFFE;}
</style>
<g id="控件">
	<g id="数据列表_x2F_网络列表_x2F_IP地址为空" transform="translate(-202.000000, -308.000000)">
		<g id="形状结合" transform="translate(202.000000, 308.000000)">
			<path id="path-1_00000083054963452991672510000014200518982354811028_" class="st0" d="M7,0c3.9,0,7,3.1,7,7s-3.1,7-7,7
				s-7-3.1-7-7S3.1,0,7,0z M7,1C3.7,1,1,3.7,1,7s2.7,6,6,6s6-2.7,6-6S10.3,1,7,1z M7,3c0.2,0,0.4,0.2,0.5,0.4v0.1v3h3
				C10.8,6.5,11,6.7,11,7c0,0.2-0.2,0.4-0.4,0.5h-0.1h-3v3C7.5,10.8,7.3,11,7,11c-0.2,0-0.4-0.2-0.5-0.4v-0.1v-3h-3
				C3.2,7.5,3,7.3,3,7c0-0.2,0.2-0.4,0.4-0.5h0.1h3v-3C6.5,3.2,6.7,3,7,3z"/>
		</g>
	</g>
</g>
</svg>
