<?xml version="1.0" encoding="utf-8"?>
<!-- Generator: Adobe Illustrator 24.0.1, SVG Export Plug-In . SVG Version: 6.00 Build 0)  -->
<svg version="1.1" id="图层_1" xmlns="http://www.w3.org/2000/svg" xmlns:xlink="http://www.w3.org/1999/xlink" x="0px" y="0px"
	 viewBox="0 0 16 16" style="enable-background:new 0 0 16 16;" xml:space="preserve">
<style type="text/css">
	.st0{fill:#8D98AA;}
</style>
<title>1-icon/01公共/Certificate</title>
<g id="_x31_-icon_x2F_01公共_x2F_Certificate">
	<g id="形状结合">
		<path id="path-1_1_" class="st0" d="M12,7c1.1,0,2,0.9,2,2c0,0.5-0.2,1-0.5,1.3l-0.1,0.1l1,2.9c0.1,0.3-0.2,0.7-0.5,0.7l-0.1,0
			L12,13.5L10.1,14c-0.4,0.1-0.7-0.2-0.6-0.6l0-0.1l1-3l0,0C10.2,10,10,9.6,10,9.2L10,9C10,7.9,10.9,7,12,7z M12,8c-0.6,0-1,0.4-1,1
			c0,0.3,0.2,0.6,0.4,0.8c0.2,0.2,0.3,0.5,0.1,0.7l0,0l-0.8,2.3l1.1-0.3c0.1,0,0.1,0,0.2,0l0.1,0l1.1,0.3l-0.8-2.4
			c-0.1-0.2,0-0.4,0.1-0.5l0.2-0.1C12.9,9.6,13,9.3,13,9C13,8.4,12.6,8,12,8z M14,2c0.6,0,1,0.4,1,1v2.5C15,5.8,14.8,6,14.5,6
			S14,5.8,14,5.5V3H2v8h6.5C8.8,11,9,11.2,9,11.5S8.8,12,8.5,12H2c-0.6,0-1-0.4-1-1V3c0-0.6,0.4-1,1-1H14z M6.5,8C6.8,8,7,8.2,7,8.5
			S6.8,9,6.5,9h-3C3.2,9,3,8.8,3,8.5S3.2,8,3.5,8H6.5z M10.5,5C10.8,5,11,5.2,11,5.5S10.8,6,10.5,6h-7C3.2,6,3,5.8,3,5.5
			S3.2,5,3.5,5H10.5z"/>
	</g>
</g>
</svg>
