<?xml version="1.0" encoding="UTF-8"?>
<svg width="76px" height="62px" viewBox="0 0 76 62" version="1.1" xmlns="http://www.w3.org/2000/svg" xmlns:xlink="http://www.w3.org/1999/xlink">
    <title>icon/扩展模组@1x</title>
    <g id="控件" stroke="none" stroke-width="1" fill="none" fill-rule="evenodd">
        <g id="卡片/扩展模组" transform="translate(-30.000000, -89.000000)">
            <g id="icon/扩展模组" transform="translate(31.764706, 90.428571)">
                <rect id="矩形" stroke="#8D98AA" stroke-width="2.58823529" x="-7.10542736e-15" y="0" width="20.7058824" height="59.1428571" rx="1.29411765"></rect>
                <rect id="矩形备份" stroke="#8D98AA" stroke-width="2.58823529" x="25.8823529" y="0" width="20.7058824" height="59.1428571" rx="1.29411765"></rect>
                <rect id="矩形备份-2" stroke="#8D98AA" stroke-width="2.58823529" x="51.7647059" y="0" width="20.7058824" height="59.1428571" rx="1.29411765"></rect>
                <rect id="矩形备份-3" stroke="#8D98AA" stroke-width="2.58823529" x="5.17647059" y="7.71428571" width="10.3529412" height="5.14285714" rx="1.29411765"></rect>
                <rect id="矩形备份-5" stroke="#8D98AA" stroke-width="2.58823529" x="31.0588235" y="7.71428571" width="10.3529412" height="5.14285714" rx="1.29411765"></rect>
                <rect id="矩形备份-7" stroke="#8D98AA" stroke-width="2.58823529" x="56.9411765" y="7.71428571" width="10.3529412" height="5.14285714" rx="1.29411765"></rect>
                <rect id="矩形备份-4" stroke="#8D98AA" stroke-width="2.58823529" x="5.17647059" y="20.5714286" width="10.3529412" height="5.14285714" rx="1.29411765"></rect>
                <rect id="矩形备份-6" stroke="#8D98AA" stroke-width="2.58823529" x="31.0588235" y="20.5714286" width="10.3529412" height="5.14285714" rx="1.29411765"></rect>
                <rect id="矩形备份-8" stroke="#8D98AA" stroke-width="2.58823529" x="56.9411765" y="20.5714286" width="10.3529412" height="5.14285714" rx="1.29411765"></rect>
                <ellipse id="椭圆形备份-18" fill="#8D98AA" cx="6.47058824" cy="52.7142857" rx="2.58823529" ry="2.57142857"></ellipse>
                <ellipse id="椭圆形备份-19" fill="#8D98AA" cx="33.6470588" cy="52.7142857" rx="2.58823529" ry="2.57142857"></ellipse>
                <ellipse id="椭圆形备份-20" fill="#8D98AA" cx="60.8235294" cy="52.7142857" rx="2.58823529" ry="2.57142857"></ellipse>
            </g>
        </g>
    </g>
</svg>