<?xml version="1.0" encoding="utf-8"?>
<!-- Generator: Adobe Illustrator 24.0.1, SVG Export Plug-In . SVG Version: 6.00 Build 0)  -->
<svg version="1.1" id="图层_1" xmlns="http://www.w3.org/2000/svg" xmlns:xlink="http://www.w3.org/1999/xlink" x="0px" y="0px"
	 viewBox="0 0 16 16" style="enable-background:new 0 0 16 16;" xml:space="preserve">
<style type="text/css">
	.st0{fill:#8D98AA;}
</style>
<title>1-icon/01公共/disk</title>
<g id="_x31_-icon_x2F_01公共_x2F_disk">
	<g id="形状结合">
		<path id="path-1_1_" class="st0" d="M13,10c0.6,0,1,0.4,1,1v3c0,0.6-0.4,1-1,1H3c-0.6,0-1-0.4-1-1v-3c0-0.6,0.4-1,1-1H13z M13,11
			H3v3h10V11z M11.5,12c0.3,0,0.5,0.2,0.5,0.5S11.8,13,11.5,13h-2C9.2,13,9,12.8,9,12.5S9.2,12,9.5,12H11.5z M11.2,1
			c0.5,0,0.9,0.3,1,0.8l1.5,5.9C13.8,8.3,13.5,8.8,13,9c-0.1,0-0.2,0-0.2,0H3.3c-0.6,0-1-0.4-1-1c0-0.1,0-0.2,0-0.2l1.5-5.9l0,0
			C3.9,1.3,4.3,1,4.8,1H11.2z M11.2,2H4.8L3.2,8h9.6L11.2,2z"/>
	</g>
</g>
</svg>
