<?xml version="1.0" encoding="utf-8"?>
<!-- Generator: Adobe Illustrator 24.0.1, SVG Export Plug-In . SVG Version: 6.00 Build 0)  -->
<svg version="1.1" id="图层_1" xmlns="http://www.w3.org/2000/svg" xmlns:xlink="http://www.w3.org/1999/xlink" x="0px" y="0px"
	 viewBox="0 0 16 16" style="enable-background:new 0 0 16 16;" xml:space="preserve">
<style type="text/css">
	.st0{fill:#8D98AA;}
</style>
<title>1-icon/01公共/download</title>
<g id="_x31_-icon_x2F_01公共_x2F_download">
	<g id="形状结合">
		<path id="path-1_1_" class="st0" d="M14.5,6c0.2,0,0.4,0.2,0.5,0.4l0,0.1v6c0,0.8-0.6,1.4-1.4,1.5l-0.1,0h-11
			c-0.8,0-1.4-0.6-1.5-1.4l0-0.1v-6C1,6.2,1.2,6,1.5,6C1.7,6,1.9,6.2,2,6.4l0,0.1v6c0,0.2,0.2,0.4,0.4,0.5l0.1,0h11
			c0.2,0,0.4-0.2,0.5-0.4l0-0.1v-6C14,6.2,14.2,6,14.5,6z M8,2c0.2,0,0.4,0.2,0.5,0.4l0,0.1v6.3l2-2c0.2-0.2,0.4-0.2,0.6-0.1
			l0.1,0.1c0.2,0.2,0.2,0.4,0.1,0.6l-0.1,0.1l-2.8,2.8c-0.2,0.2-0.4,0.2-0.6,0.1l-0.1-0.1L4.8,7.5C4.6,7.3,4.6,7,4.8,6.8
			C5,6.6,5.3,6.6,5.5,6.8l0.1,0.1l2,2V2.5C7.5,2.2,7.7,2,8,2z"/>
	</g>
</g>
</svg>
