<?xml version="1.0" encoding="UTF-8"?>
<svg width="16px" height="16px" viewBox="0 0 16 16" version="1.1" xmlns="http://www.w3.org/2000/svg" xmlns:xlink="http://www.w3.org/1999/xlink">
    <title>1-icon/01公共/02告警/error</title>
    <g id="1-icon/01公共/02告警/error" stroke="none" stroke-width="1" fill="none" fill-rule="evenodd">
        <path d="M8,1 C4.134375,1 1,4.134375 1,8 C1,11.865625 4.134375,15 8,15 C11.865625,15 15,11.865625 15,8 C15,4.134375 11.865625,1 8,1 Z" id="路径" fill="#E32020"></path>
        <path d="M8,11.5 C7.5859375,11.5 7.25,11.1640625 7.25,10.75 C7.25,10.3359375 7.5859375,10 8,10 C8.4140625,10 8.75,10.3359375 8.75,10.75 C8.75,11.1640625 8.4140625,11.5 8,11.5 Z M8,4 C8.27614237,4 8.5,4.22385763 8.5,4.5 L8.5,8.5 C8.5,8.77614237 8.27614237,9 8,9 C7.72385763,9 7.5,8.77614237 7.5,8.5 L7.5,4.5 C7.5,4.22385763 7.72385763,4 8,4 Z" id="形状" fill="#FFFFFF"></path>
    </g>
</svg>