<?xml version="1.0" encoding="utf-8"?>
<!-- Generator: Adobe Illustrator 24.0.1, SVG Export Plug-In . SVG Version: 6.00 Build 0)  -->
<svg version="1.1" id="图层_1" xmlns="http://www.w3.org/2000/svg" xmlns:xlink="http://www.w3.org/1999/xlink" x="0px" y="0px"
	 viewBox="0 0 16 16" style="enable-background:new 0 0 16 16;" xml:space="preserve">
<style type="text/css">
	.st0{fill:#8D98AA;}
</style>
<title>1-icon/01公共/network</title>
<g id="_x31_-icon_x2F_01公共_x2F_network">
	<g id="形状结合">
		<path id="path-1_1_" class="st0" d="M10,1c0.6,0,1,0.4,1,1v3c0,0.6-0.4,1-1,1H8.5v2h6C14.8,8,15,8.2,15,8.5S14.8,9,14.5,9h-2v1H14
			c0.6,0,1,0.4,1,1v3c0,0.6-0.4,1-1,1h-4c-0.6,0-1-0.4-1-1v-3c0-0.6,0.4-1,1-1h1.5V9h-7v1H6c0.6,0,1,0.4,1,1v3c0,0.6-0.4,1-1,1H2
			c-0.6,0-1-0.4-1-1v-3c0-0.6,0.4-1,1-1h1.5V9h-2C1.2,9,1,8.8,1,8.5S1.2,8,1.5,8h6V6H6C5.4,6,5,5.6,5,5V2c0-0.6,0.4-1,1-1H10z M6,11
			H2v3h4V11z M14,11h-4v3h4V11z M10,2H6v3h4V2z"/>
	</g>
</g>
</svg>
