<?xml version="1.0" encoding="UTF-8"?>
<svg width="13px" height="12px" viewBox="0 0 13 12" version="1.1" xmlns="http://www.w3.org/2000/svg" xmlns:xlink="http://www.w3.org/1999/xlink">
    <title>编组 7</title>
    <g id="管理/网络/无线网络" stroke="none" stroke-width="1" fill="none" fill-rule="evenodd">
        <g id="08" transform="translate(-394.000000, -475.000000)" fill-rule="nonzero">
            <g id="数据列表/无线网络1" transform="translate(248.000000, 104.000000)">
                <g id="数据列表/移动网络" transform="translate(0.000000, 144.000000)">
                    <g id="编组" transform="translate(56.000000, 188.000000)">
                        <g id="1-icon/01公共/state-gray" transform="translate(90.000000, 6.000000)">
                            <g id="编组-7" transform="translate(0.000000, 33.000000)">
                                <path d="M12.5,0 C12.7761424,-5.07265313e-17 13,0.223857625 13,0.5 L13,11.5 C13,11.7761424 12.7761424,12 12.5,12 C12.2238576,12 12,11.7761424 12,11.5 L12,0.5 C12,0.223857625 12.2238576,5.07265313e-17 12.5,0 Z" id="矩形备份-12" fill="#8D98AA"></path>
                                <path d="M9.5,3 C9.77614237,3 10,3.22385763 10,3.5 L10,11.5 C10,11.7761424 9.77614237,12 9.5,12 C9.22385763,12 9,11.7761424 9,11.5 L9,3.5 C9,3.22385763 9.22385763,3 9.5,3 Z" id="矩形备份-13" fill="#8D98AA"></path>
                                <path d="M6.5,5 C6.77614237,5 7,5.22385763 7,5.5 L7,11.5 C7,11.7761424 6.77614237,12 6.5,12 C6.22385763,12 6,11.7761424 6,11.5 L6,5.5 C6,5.22385763 6.22385763,5 6.5,5 Z" id="矩形备份-14" fill="#0077FF"></path>
                                <path d="M3.5,7 C3.77614237,7 4,7.22385763 4,7.5 L4,11.5 C4,11.7761424 3.77614237,12 3.5,12 C3.22385763,12 3,11.7761424 3,11.5 L3,7.5 C3,7.22385763 3.22385763,7 3.5,7 Z" id="矩形备份-15" fill="#0077FF"></path>
                                <path d="M0.5,9 C0.776142375,9 1,9.22385763 1,9.5 L1,11.5 C1,11.7761424 0.776142375,12 0.5,12 C0.223857625,12 3.38176876e-17,11.7761424 0,11.5 L0,9.5 C-3.38176876e-17,9.22385763 0.223857625,9 0.5,9 Z" id="矩形备份-16" fill="#0077FF"></path>
                            </g>
                        </g>
                    </g>
                </g>
            </g>
        </g>
    </g>
</svg>