<?xml version="1.0" encoding="UTF-8"?>
<svg width="16px" height="16px" viewBox="0 0 16 16" version="1.1" xmlns="http://www.w3.org/2000/svg" xmlns:xlink="http://www.w3.org/1999/xlink">
    <title>1-icon/01公共/Signal</title>
    <g id="1-icon/01公共/Signal" stroke="none" stroke-width="1" fill="none" fill-rule="evenodd">
        <path d="M14.5,2 C14.7761424,2 15,2.22385763 15,2.5 L15,13.5 C15,13.7761424 14.7761424,14 14.5,14 C14.2238576,14 14,13.7761424 14,13.5 L14,2.5 C14,2.22385763 14.2238576,2 14.5,2 Z" id="矩形备份-2" fill="#8D98AA" fill-rule="nonzero"></path>
        <path d="M11.5,5 C11.7761424,5 12,5.22385763 12,5.5 L12,13.5 C12,13.7761424 11.7761424,14 11.5,14 C11.2238576,14 11,13.7761424 11,13.5 L11,5.5 C11,5.22385763 11.2238576,5 11.5,5 Z" id="矩形备份-3" fill="#8D98AA" fill-rule="nonzero"></path>
        <path d="M8.5,7 C8.77614237,7 9,7.22385763 9,7.5 L9,13.5 C9,13.7761424 8.77614237,14 8.5,14 C8.22385763,14 8,13.7761424 8,13.5 L8,7.5 C8,7.22385763 8.22385763,7 8.5,7 Z" id="矩形备份-4" fill="#8D98AA" fill-rule="nonzero"></path>
        <path d="M5.5,9 C5.77614237,9 6,9.22385763 6,9.5 L6,13.5 C6,13.7761424 5.77614237,14 5.5,14 C5.22385763,14 5,13.7761424 5,13.5 L5,9.5 C5,9.22385763 5.22385763,9 5.5,9 Z" id="矩形备份-5" fill="#8D98AA" fill-rule="nonzero"></path>
        <path d="M2.5,11 C2.77614237,11 3,11.2238576 3,11.5 L3,13.5 C3,13.7761424 2.77614237,14 2.5,14 C2.22385763,14 2,13.7761424 2,13.5 L2,11.5 C2,11.2238576 2.22385763,11 2.5,11 Z" id="矩形备份-6" fill="#8D98AA" fill-rule="nonzero"></path>
    </g>
</svg>