<?xml version="1.0" encoding="utf-8"?>
<!-- Generator: Adobe Illustrator 24.0.1, SVG Export Plug-In . SVG Version: 6.00 Build 0)  -->
<svg version="1.1" id="图层_1" xmlns="http://www.w3.org/2000/svg" xmlns:xlink="http://www.w3.org/1999/xlink" x="0px" y="0px"
	 viewBox="0 0 16 16" style="enable-background:new 0 0 16 16;" xml:space="preserve">
<style type="text/css">
	.st0{fill:#8D98AA;}
</style>
<title>1-icon/01公共/test</title>
<g id="_x31_-icon_x2F_01公共_x2F_test">
	<g id="形状结合">
		<path id="path-1_1_" class="st0" d="M13.5,2C14.3,2,15,2.7,15,3.5v7c0,0.8-0.7,1.5-1.5,1.5h-11C1.7,12,1,11.3,1,10.5v-7
			C1,2.7,1.7,2,2.5,2H13.5z M13.5,3h-11C2.2,3,2,3.2,2,3.5v7C2,10.8,2.2,11,2.5,11h11c0.3,0,0.5-0.2,0.5-0.5v-7
			C14,3.2,13.8,3,13.5,3z M9.9,4.3L9.9,4.3L10.9,7h1.6c0.2,0,0.4,0.2,0.5,0.4l0,0.1c0,0.2-0.2,0.4-0.4,0.5l-0.1,0h-2
			c-0.2,0-0.4-0.1-0.4-0.3l0-0.1l-0.7-2L6.9,9.8c-0.2,0.3-0.6,0.3-0.8,0l0-0.1L5.3,8H3.5C3.3,8,3.1,7.8,3,7.6l0-0.1
			C3,7.3,3.2,7.1,3.4,7l0.1,0h2.1C5.8,7,6,7.1,6.1,7.2l0,0.1l0.5,1.1l2.5-4.2C9.3,3.9,9.8,3.9,9.9,4.3z M13.5,13
			c0.3,0,0.5,0.2,0.5,0.5c0,0.2-0.2,0.4-0.4,0.5l-0.1,0h-11C2.2,14,2,13.8,2,13.5c0-0.2,0.2-0.4,0.4-0.5l0.1,0H13.5z"/>
	</g>
</g>
</svg>
