<?xml version="1.0" encoding="utf-8"?>
<!-- Generator: Adobe Illustrator 24.0.1, SVG Export Plug-In . SVG Version: 6.00 Build 0)  -->
<svg version="1.1" id="图层_1" xmlns="http://www.w3.org/2000/svg" xmlns:xlink="http://www.w3.org/1999/xlink" x="0px" y="0px"
	 viewBox="0 0 16 16" style="enable-background:new 0 0 16 16;" xml:space="preserve">
<style type="text/css">
	.st0{fill:#8D98AA;}
</style>
<title>1-icon/01公共/time</title>
<g id="_x31_-icon_x2F_01公共_x2F_time">
	<g id="形状结合">
		<path id="path-1_1_" class="st0" d="M8,1c3.9,0,7,3.1,7,7s-3.1,7-7,7s-7-3.1-7-7S4.1,1,8,1z M8,2C4.7,2,2,4.7,2,8s2.7,6,6,6
			s6-2.7,6-6S11.3,2,8,2z M8,4c0.2,0,0.4,0.2,0.5,0.4l0,0.1v3.3l2.3,2.3c0.2,0.2,0.2,0.5,0,0.7c-0.2,0.2-0.4,0.2-0.6,0.1l-0.1-0.1
			L7.6,8.4l0,0c0,0,0,0,0,0l0,0.1c0,0,0-0.1-0.1-0.1c0,0,0,0,0,0c0,0,0,0,0,0c0,0,0,0,0,0c0,0,0,0,0,0c0,0,0,0,0,0l0,0
			c0,0,0,0,0-0.1l0,0V4.5C7.5,4.2,7.7,4,8,4z"/>
	</g>
</g>
</svg>
