<?xml version="1.0" encoding="UTF-8"?>
<svg width="12px" height="12px" viewBox="0 0 12 12" version="1.1" xmlns="http://www.w3.org/2000/svg" xmlns:xlink="http://www.w3.org/1999/xlink">
    <title>1-icon/01公共/calculate</title>
    <defs>
        <path d="M4,0 L1.5,0 C0.671572875,0 0,0.671572875 0,1.5 L0,4 C0,4.82842712 0.671572875,5.5 1.5,5.5 L4,5.5 C4.82842712,5.5 5.5,4.82842712 5.5,4 L5.5,1.5 C5.5,0.671572875 4.82842712,0 4,0 Z M1.5,1 L4,1 C4.27614237,1 4.5,1.22385763 4.5,1.5 L4.5,4 C4.5,4.27614237 4.27614237,4.5 4,4.5 L1.5,4.5 C1.22385763,4.5 1,4.27614237 1,4 L1,1.5 C1,1.22385763 1.22385763,1 1.5,1 Z M4,6.5 L1.5,6.5 C0.671572875,6.5 0,7.17157288 0,8 L0,10.5 C0,11.3284271 0.671572875,12 1.5,12 L4,12 C4.82842712,12 5.5,11.3284271 5.5,10.5 L5.5,8 C5.5,7.17157288 4.82842712,6.5 4,6.5 Z M1.5,7.5 L4,7.5 C4.27614237,7.5 4.5,7.72385763 4.5,8 L4.5,10.5 C4.5,10.7761424 4.27614237,11 4,11 L1.5,11 C1.22385763,11 1,10.7761424 1,10.5 L1,8 C1,7.72385763 1.22385763,7.5 1.5,7.5 Z M10.5,0 L8,0 C7.17157288,0 6.5,0.671572875 6.5,1.5 L6.5,4 C6.5,4.82842712 7.17157288,5.5 8,5.5 L10.5,5.5 C11.3284271,5.5 12,4.82842712 12,4 L12,1.5 C12,0.671572875 11.3284271,0 10.5,0 Z M8,1 L10.5,1 C10.7761424,1 11,1.22385763 11,1.5 L11,4 C11,4.27614237 10.7761424,4.5 10.5,4.5 L8,4.5 C7.72385763,4.5 7.5,4.27614237 7.5,4 L7.5,1.5 C7.5,1.22385763 7.72385763,1 8,1 Z M10.5,6.5 L8,6.5 C7.17157288,6.5 6.5,7.17157288 6.5,8 L6.5,10.5 C6.5,11.3284271 7.17157288,12 8,12 L10.5,12 C11.3284271,12 12,11.3284271 12,10.5 L12,8 C12,7.17157288 11.3284271,6.5 10.5,6.5 Z M8,7.5 L10.5,7.5 C10.7761424,7.5 11,7.72385763 11,8 L11,10.5 C11,10.7761424 10.7761424,11 10.5,11 L8,11 C7.72385763,11 7.5,10.7761424 7.5,10.5 L7.5,8 C7.5,7.72385763 7.72385763,7.5 8,7.5 Z" id="path-1"></path>
    </defs>
    <g id="管理/扩展模组" stroke="none" stroke-width="1" fill="none" fill-rule="evenodd">
        <g id="02备份" transform="translate(-42.000000, -234.000000)">
            <g id="left/focus备份-4" transform="translate(24.000000, 224.000000)">
                <g id="1-icon/01公共/calculate" transform="translate(18.000000, 10.000000)">
                    <mask id="mask-2" fill="white">
                        <use xlink:href="#path-1"></use>
                    </mask>
                    <use id="形状结合" fill="#000000" fill-rule="nonzero" xlink:href="#path-1"></use>
                    <g id="0-color/Dark/3Secondary" mask="url(#mask-2)" fill="#8D98AA">
                        <g transform="translate(-2.000000, -2.000000)" id="矩形">
                            <rect x="0" y="0" width="16" height="16"></rect>
                        </g>
                    </g>
                </g>
            </g>
        </g>
    </g>
</svg>